<svg xmlns="http://www.w3.org/2000/svg" height="401.537" width="646.224" xmlns:xlink="http://www.w3.org/1999/xlink" viewBox="0 0 605.848 376.442"><defs><linearGradient id="prefix__c" y2="120.08" xlink:href="#prefix__a" gradientUnits="userSpaceOnUse" x2="186.68" gradientTransform="translate(-37.122 -269.29) scale(2.7267)" y1="186.46" x1="188"/><linearGradient id="prefix__a"><stop stop-color="#7694a2" offset="0"/><stop stop-color="#7694a2" stop-opacity="0" offset="1"/></linearGradient><linearGradient id="prefix__b" y2="123.15" xlink:href="#prefix__a" gradientUnits="userSpaceOnUse" x2="57.998" gradientTransform="translate(-37.122 -269.29) scale(2.7267)" y1="188.25" x1="57.998"/></defs><path d="M211.67 45.821c-6.84-33.748-120.82-36.986-154.75 0-15.012 13.911-65.801 112.66-55.57 269.31 16.093 58.038 78.748 80.294 123.11 35.908l38.473-53.007c44.527 44.307 95.977 19.742 117.13-19.664h45.312c16.549 27.724 56.544 71.53 115.42 22.229l35.908 48.732c32.455 32.944 67.243 39.225 106.01 0 32.319-38.647 26.182-128.76 9.404-200.91-17.85-67.059-21.82-78.214-41.16-101.92-38.32-38.997-153.4-28.384-158.74-1.017-7.04 26.748-32.21 26.892-61.99 25.132h-59.276c-51.71 3.973-46.65-13.796-59.27-24.794z" fill-rule="evenodd" fill="#698999"/><path d="M351.1 275.99a40.935 40.935 0 0126.746-51.271 40.935 40.935 0 0151.329 26.634 40.935 40.935 0 01-26.522 51.387 40.935 40.935 0 01-51.445-26.41" fill="#303432"/><path d="M350.07 270.86a42.023 42.023 0 0127.457-52.633 42.023 42.023 0 0152.693 27.342 42.023 42.023 0 01-27.227 52.752 42.023 42.023 0 01-52.812-27.112" fill="#404643"/><path d="M176.59 275.99a40.935 40.935 0 0126.746-51.271 40.935 40.935 0 0151.329 26.634 40.935 40.935 0 01-26.522 51.387 40.935 40.935 0 01-51.445-26.41" fill="#303432"/><path fill="url(#prefix__b)" d="M39.505 183.23A90.098 90.098 0 0198.373 70.38 90.098 90.098 0 01211.353 129a90.098 90.098 0 01-58.38 113.11 90.098 90.098 0 01-113.23-58.13"/><path fill="#303432" d="M76.884 170.36a51.598 51.598 0 0133.713-64.626 51.598 51.598 0 0164.699 33.572 51.598 51.598 0 01-33.431 64.772 51.598 51.598 0 01-64.845-33.289"/><path d="M125.83 103.35a51.598 51.598 0 00-15.231 2.391 51.598 51.598 0 00-1.635.607l.533 32.997-32.54.15a51.598 51.598 0 00-.074 30.871l.011.032 32.603.15-.532 32.992a51.598 51.598 0 0032.901.543 51.598 51.598 0 001.417-.533l-.527-33.003 32.529-.149a51.598 51.598 0 00.064-30.904l-32.593-.15.527-33.007a51.598 51.598 0 00-17.452-2.988zM175.56 270.86a42.023 42.023 0 0127.457-52.633 42.023 42.023 0 0152.693 27.342 42.023 42.023 0 01-27.227 52.752 42.023 42.023 0 01-52.812-27.112" fill="#404643"/><path fill="url(#prefix__c)" d="M393.98 183.23a90.098 90.098 0 0158.87-112.85A90.098 90.098 0 01565.82 129a90.098 90.098 0 01-58.38 113.11 90.098 90.098 0 01-113.22-58.13"/><path d="M459.77 118.64a20.018 20.018 0 0113.08-25.073 20.018 20.018 0 0125.101 13.025 20.018 20.018 0 01-12.97 25.13 20.018 20.018 0 01-25.158-12.915" fill="#ff0"/><path d="M416.12 164.2a20.018 20.018 0 0113.08-25.073 20.018 20.018 0 0125.101 13.025 20.018 20.018 0 01-12.97 25.13 20.018 20.018 0 01-25.158-12.915" fill="navy"/><path d="M459.77 209.76a20.018 20.018 0 0113.08-25.073 20.018 20.018 0 0125.101 13.025 20.018 20.018 0 01-12.97 25.13 20.018 20.018 0 01-25.158-12.915" fill="green"/><path d="M503.42 164.2a20.018 20.018 0 0113.08-25.073 20.018 20.018 0 0125.101 13.025 20.018 20.018 0 01-12.97 25.13 20.018 20.018 0 01-25.158-12.915" fill="red"/><g fill="#404643"><path d="M452.44 21.398l3.61-15.303c2.178-6.604 31.328-7.436 42.3 3.176l17.414 18.047c-18.957-5.262-40.347-7.365-63.324-5.92zM151.47 19.417l-3.61-14.519c-2.178-6.604-31.329-7.436-42.301 3.176L88.262 27.237c20.09-4.185 36.652-8.166 63.205-7.82z" fill-rule="evenodd"/><rect ry="9.437" height="20.256" width="30.614" y="157.12" x="339.22"/><rect ry="9.437" height="20.256" width="30.614" y="157.12" x="236.85"/><rect ry="9.437" height="20.256" width="30.614" y="102.59" x="351.42"/><rect ry="9.437" height="20.256" width="30.614" y="102.59" x="224.42"/><path d="M570.19 344.91c-5.494-17.666-7.115-30.357-7.098-55.589.022-33.026 3.5-49.93 15.488-75.293 6.083-12.87 10.823-26.284 12.805-36.237l3.146-15.803 2.327 12.353c11.807 62.68 10.19 124.45-4.11 156.89-4.082 9.262-15.041 23.654-18.012 23.654-.794 0-2.84-4.49-4.547-9.978zM17.027 345.59C3.359 326.97 1.874 321.4 1.065 285.8c-.4-17.619.253-43.275 1.452-57.015 2.43-27.847 7.726-64.562 9.111-63.177.495.495 2.049 6.93 3.453 14.302 1.405 7.372 6.514 22.496 11.354 33.611 4.839 11.114 10 25.875 11.469 32.802 3.45 16.28 3.477 53.064.052 70.868-2.82 14.66-9.742 35.034-12.476 36.724-.885.547-4.689-3.2-8.453-8.328z"/></g></svg>