<svg xmlns="http://www.w3.org/2000/svg" viewBox="0 0 2563 2918"><defs><filter id="prefix__b"><feGaussianBlur stdDeviation="4.685"/></filter><filter id="prefix__c" y="-.618" width="2.038" height="2.235" x="-.519"><feGaussianBlur stdDeviation="2.88"/></filter><linearGradient id="prefix__a" y2="165.62" gradientUnits="userSpaceOnUse" x2="161.43" y1="14.902" x1="15.714"><stop stop-color="#e7eaf0" offset="0"/><stop stop-color="#2852b7" stop-opacity="0" offset="1"/></linearGradient></defs><g transform="matrix(1.5608 -2.0589 0 2.4298 -53.766 614.58)"><rect transform="translate(399.4 379.41)" rx="57.5" ry="14.021" height="155.71" width="157.86" y="6.687" x="3.571" fill="#fff" color="#000"/><rect transform="translate(399.4 379.41)" rx="9.107" ry=".357" height="167.14" width="164.29" y=".973" x=".714" fill="#2852b7" color="#000"/><rect transform="translate(399.4 379.41)" rx="5.179" ry=".357" height="162.5" width="158.21" y="3.116" x="3.214" fill="url(#prefix__a)" color="#000"/><g opacity=".915" stroke-width="1.9" fill="#121253"><path d="M460.419 409.885h43.688v4.662h-43.688z"/><g transform="matrix(.88177 0 0 .88162 -447.54 -196.59)"><path d="M1022.1 673.31c-5.495 0-9.916 4.144-9.916 9.293v35.429c0 5.149 4.422 9.293 9.916 9.293h63.234c5.495 0 9.916-4.144 9.916-9.293v-35.429c0-5.149-4.421-9.293-9.916-9.293H1022.1zm9.113 8.144h45.008c5.495 0 9.916 4.144 9.916 9.293v19.141c0 5.15-4.421 9.293-9.916 9.293h-45.008c-5.494 0-9.916-4.144-9.916-9.293v-19.14c0-5.15 4.422-9.294 9.916-9.294z"/><rect transform="translate(0 308.27)" rx="14.021" ry="14.021" height="37.666" width="48.744" y="470.46" x="970.45"/><rect rx="14.021" ry="14.021" height="37.666" width="48.744" y="779.84" x="1091.2"/><path d="M1049.7 736.36h9.139v37.389h-9.139zM1110.8 748.54h9.416v25.203h-9.416zM981.92 748.54h9.416v25.203h-9.416z"/><path d="M981.92 748.54h138.26v10.771H981.92zM1029.7 687.91h49.546v5.288H1029.7zM1029.7 697.91h49.546v5.288H1029.7zM1029.7 707.91h49.546v5.288H1029.7z"/><rect rx="14.021" ry="14.021" height="37.666" width="48.744" y="779.84" x="1030.3"/></g></g></g><path d="M248.63 1154.7c-.094-50.713.957-73.591 3.142-108.42 14.55 23.133 39.378 61.692 49.47 86.999 21.323 55.964 52.713 108.58 78.648 162.81 5.065 12.29 7.693 13.093 17.812 31.013 3.089 5.469 6.744 14.267 18.15 30.796 20.23 46.776 43.568 86.587 64.498 129.76 17.434 32.892 29.584 68.677 46.818 101.63 18.735 43.912 48.298 84.356 69.391 126.43 13.528 21.59 33.99 39.991 54.55 59.821.254 22.275 2.044 46.676 1.956 50.251-.655 26.733-.187 93.381.687 97.886 1.722 8.874 1.175 31.113-1.404 57.114-2.098 21.16-2.433 29.749-2.456 63-5.545 77.254 2.933 153.85-7.736 230.5-.368 2.2-.77 25.375-.891 51.5-.337 71.952-1.308 115.93-2.915 132-1.156 11.56-1.276 20.683-.59 45 2.349 26.163 1.105 51.906-1.486 78-.869 7.975-1.604 20.125-1.634 27l7.926 43.442c7.378 2.037 15.902 1.525 22.87-1.652 1.697-1.697 3.8-25.952 2.93-33.79-.785-7.082 3.851-46.142 6.519-54.915-1.366-110.68 8.336-221.32 11.53-331.58 1.666-29.224.35-58.948 4.477-88 2.808-40.352 3.284-80.693 7.916-121 5.752-54.001-3.47-109.21 4.025-163 7.055-20.915.067-51.19 5.788-71.202 20.424-15.491 77.218-4.663 104.18-4.691 28.856-.457 57.909-3.355 86.643.326 26.949 1.882 51.582-1.876 79.17-.788 44.124 2.792 87.849-2.994 131.98-.35 34.757-1.929 68.972-.613 103.7 2.28 36.124 4.668 72.043 6.458 108.39 3.951 21.06-1.71 42.049 1.727 63.108 2.48 18.99.5 41.463 2.383 60 5.026 32.159 4.587 50.536 5.618 60.816 3.414 7.292-1.564 18.726-1.604 37.032-.13 14.797 2.84 27.305-4.575 41.27 6.186l-3.445 27.714 1.215 14.892c.849 10.406 1.081 32.966.771 74.892-.402 54.427-.608 60.418-2.216 64.5-1.59 4.036-1.807 9.394-2.11 52-.448 62.79-1.125 89.816-2.489 99.363-.973 16.23.18 32.287-1.747 48.495-3.961 30.781-5.097 41.87-5.14 50.194-.339 69.642-9.514 137.17-10.418 206.95-.127 17.875-1.671 45.987-3.13 57-5.492 21.481-7.343 43.353-5.984 65.5 1.072 36.852-1.837 73.558-1.051 110.5l.424 17.5c9.126-1.717 18.539 5.686 26.97 3.25 1.148-2.751 1.385-5.808 1.717-8.75 2.61-14.001 2.83-28.32 5.474-42.298 2.66-12.926 3.11-21.128 3.55-64.702 1.033-65.478 11.897-129.54 16.424-195 1.469-19.506 1.495-42.364.08-68.5-1.022-18.867-1.047-26.46-.116-35.5 1.482-14.38.085-84.865.212-90 .52-21.044-3.46-43.49-1.608-65 .865-10.053 2.5-20.293 2.5-22.883 0-4.36 2.901-31.053 6.48-59.617.827-6.6 1.518-17.625 1.535-24.5 2.927-34.973 4.904-69.972 7.257-105 2.067-27.78 1.385-114.03-1.087-137.5-26.965-12.983-95.09-1.79-126.18-4.476-76.881-.096-142.59.22-221.18-10.154-55.158-4.673-106.01-11.8-158.82-13.41-38.194 4.371-76.656 2.923-115 3.42-73.104-7.582-144.99-5.567-218.17-5.328-17.698-1.18-47.726 3.702-65.193.31-28.737 1.373-23.91 5.284-45.22 2.945-36.441-37.438-75.497-91.8-86.646-114.81-15.028-31.011-36.602-61.763-51.704-92.872-24.19-50.548-48.78-96.007-73.57-146.02-16.347-32.61-29.24-46.535-45.018-71.364-20.403-39.584-31.722-55.816-50.074-96.002-27.883-38.657-36.687-91.793-65.392-129.24-9.894-21.54-24.913-40.2-36.012-61.066-11.173-19.741-19.428-32.747-30.961-52.354-2.74 41.793-.523 17.352-1.042 60.224-2.504 47.824-3.34 66.992-2.362 115.69l-3.262 139.68c-3.051 44.175-3.025 71.225-6.183 105.91-1.96 31.774-2.393 56.673-2.71 86.636-12.969 132.07-11.233 156.77-11.635 182.68-1.961 8.352-.69 23.497-.145 28.34 8.435 1.989 18.356 1.403 24.41 1.989 5.238-30.23 2.844-66.121 3.558-98.766.243-35.555 1.472-80.806 1.788-105.28 1.443-21.333 7.221-41.495 7.8-70.003l-2.97-54.679c4.515-27.466 3.922-53.544 4.578-78.479 5.224-49.879 7.353-95.288 6.97-146.1zm1316.7 1557c-16.984-1.052-33.7 7.14-43.357-10.012-3.28-6.255-3.337-6.578-2.5-13.904.471-4.125.736-17.175.587-29-.229-18.213.118-24.558 2.27-41.5 8.09-60.669 11.132-122.8 15.473-184 .127-19.007 3.683-37.724 4.01-56.701.088-17.026 3.748-33.76 1.467-50.799-.633-25.656 2.554-29.009 1.13-52.368-6.54-9.354-29.621-26.675-36.411-29.982-5.934 7.218-9.042 23.211-11.332 29.633-10.826 32.852-4.456 63.305-15.195 61.241-13.115-2.52-28.312-16.337-29.025-51.371-1.353-11.724-3.417-21.148-1.72-32.601-3.633-15.916 3.279-23.328-4.715-20.984-31.02 3.992-45.37 93.135-55.763 90.842-15.372-3.472-23.07-43.443-23.036-58.861.022-10.268 6.043-47.408 15.88-63.048 13.01-20.685 26.988-40.74 31.208-44.777 4.966-4.75 28.3-36.272 34.123-41.511 5.289-15.138 12.264-19.127 17.74-33.711 6.911-21.791 12.868-41.758 25.136-61 7.824-15.602 7.692-64.617 2.078-79.65-5.093-71.103 6.252-48.612-67.307-39.936-12.228 11.847-20.558 26.859-30.424 40.569-9.046 16.142-18.253 31.878-23.965 49.634 2.514 33.823 14.816 108.39 16.64 133.9-5.589 43.093-12.045 123.48-34.476 124.4-18.898-3.289-7.482-32.459-11.349-40.694-6.913-15.974-10.74-33.259-19.319-48.518-9.395 10.61-11.382 30.819-21.768 40.802-9.056 6.85-18.315 42.078-37.716 47.188-15.688-15.645-13.478-63.838-9.938-82.282 3.062-12.857 4.764-20.992 5.49-26.25.822-5.942-.517-6.196-6.637-1.259-9.605 9.2-15.858 15.025-27.12 21.702-27.158 8.118-25.922 60.893-49.591 48.373-8.35-15.37 1.724-65.395 6.195-84.873 15.979-38.269 36.43-63.442 63.724-81.646 12.267-10.675 25.716-22.4 37.779-33.28 9.911-8.293 14.624-5.525 24.712-13.609 8.418-8.085 13.62-27.88 15.908-38.659 1.338-4.95 7.774-11.539 8.96-17.314 4.124-20.086 14.933-41.987 22.06-63.639-7.234-12.136-6.762-23.934-11.064-45.077 9.87-23.959-21.248-16.39-43.841-14.36-23.707 3.002-46.867-4.111-70.364-5.023-6.876 0-17.131-.983-48.636-4.662-48.342-.564-100.33-1.096-148.5 3.176-44.834-.251-90.205 1.703-134.93 1.307-4.163-.482-29.168-1.09-55.568-1.349-33.484 1.579-65.611-3.859-98.5-6.532-19.121-6.879-11.19 31.924-11.12 44.56-4.165 102.08 3.32 204.72-7.376 306.5-2.887 18.222-1.579 36.767-2.994 55.12-1.686 24.484.474 49.137-3.91 73.38-3.85 43.165-3.356 87.942-4.172 131.5-4.252 51.81 3.547 107.76-3.716 159-8.109 32.282-1.293 66.367-7.007 98.772-4.508 11.124-19.156 7.347-28.636 9.684-17.086 4.544-49.992 13.576-62.268-5.569-5.525-12.992-4.651-27.322-7.777-40.886-3.679-144.33 8.055-292.24 13.29-437.18-4.577-88.707 8.383-179.29 8.41-267.32-1.246-18.096-1.445-45.69-.599-82.775-1.241-10.086 1.705-47.612-9.698-51.08-21.43-26.979-26.594-35.614-39.075-58.066-9.148-23.984-27.59-38.735-43.348-59.133-3.191-4.571-14-27.355-14.01-29.53-7.31-17.013-15.668-33.638-23.898-50.263-12.264-24.639-23.46-49.323-33.063-75.154-9.949-19.929-19.031-40.348-29.505-60.008-11.164-20.027-20.504-41.056-30.928-61.492-10.101-16.266-15.424-35.16-26.371-50.85-3.804-5.436-24.228-42.315-24.228-43.746-9.361-19.986-19.964-39.267-28.145-59.904-9.677-22.225-18.337-44.37-27.855-66.52-7.707-16.51-14.251-33.706-22.633-49.903-2.362-2.617-3.516 3.599-4.443 23.923-.49 10.725-1.568 30.075-2.398 43-2.019 31.437-3.449 94.066-3.455 151.29-.003 25.736-.272 47.225-.599 47.753-.107 11.848-1.097 23.875-.862 35.728-.71 22.506-1.91 45.292-2.524 56.307-.858 15.409-3.881 36.93-2.383 81.043.69 20.353.61 33.702-.308 44.818-5.662 33.841-3.937 69.037-4.102 103.2.023 14.263-.925 10.433-2.748 12.447-19.143 3.915-39.804 1.644-65.576-.131-4.873-2.548-3.925-.63-5.952-6.256-1.892-7.274-.1-40.745 1.591-52.013 2.117-24.112 1.774-62.425 4.038-86.557.014-41.236 2.471-77.81 6.307-118.86 3.04-33.439 3.711-65.42 6.202-103.77 7.279-51.604 3.032-60.538 3.92-196.01.078-11.825.58-25.325 1.115-30 .535-4.675 1.143-16.825 1.35-27 .207-10.175 2.144-27.799 1.27-39.113-2.11-27.3.9-42.189-1.765-48.334.637-44.025 3.573-54.263 6.21-79.72 2.705-14.937 9.436-12.498 21.153-13.907 21.516 1.175 39.628 2.72 60.592 4.585 30.344 1.725 52.478.166 77.818.794 6.6.432 22.712.874 30.137.983 31.95.467 64.708 2.899 74.273 4.584 17.654 2.141 27.154.782 44.742 2.965 2.516-1.554 3.216-15.32 3.552-60.337 12.844-73.089-8.775-146.54-.21-218.66 4.869-6.438 9.307-13.137 15.412-18.502 21.045-18.563 38.992-40.397 55.74-62.84 18.01-25.517 22.792-31.914 31.02-41.5 12.14-14.657 24.068-29.49 36.04-44.288 18.863-22.487 36.912-45.669 55.977-67.99 11.667-13.487 23.287-27.015 35-40.462 29.899-34.246 56.514-56.39 86.814-90.275 7.002-8.985 22.41-33.7 34.682-36.953 4.779 14.34 2.422 46.057 2.736 66.086.659 4.661 3.305 17.635 3.143 26.16-.24 12.605.618 18.132-.407 64.306-3.741 31.488 1.568 40.048-4.473 58.415-2.548 28.76-2.944 62.205-1.278 108 1.35 37.107.266 61.333-3.579 80-2.505 12.167-2.994 18.882-3.641 50 .132 21.263-2.762 42.302-5.067 63.38-.61 7.026-6.102 11.795-9.379 17.813-5.853 11.32-17.22 29.381-24.737 39.306-14.58 19.251-28.316 39.702-28.316 42.161-7.519 23.885-39.775 47.748-48 69.251 0 2.172 6.184 2.376 33.46 1.102 29.14-1.36 66.695-1.388 81.762-.06 6.187.545 10.983.357 16.5-.646 8.37-1.523 37.234 1.202 48.942.972 14.362 7.522 21.313 22.13 34.647 32.354 25.123 21.563 44.795 48.939 68.597 71.97 19.814 18.737 38.228 38.1 56.05 58.715 23.802 26.919 47.684 54.035 65.64 85.119 5.119 8.461 8.175 12.563 9.363 12.563 2.491 0 16.498-3.583 23.038-5.893 11.836-4.181 51.349-16.107 53.366-16.108 17.21-2.68 34.66-4.917 51.03-11.08a15581 15581 0 0116.56-6.442c15.973-6.442 33.3-6.78 49.549-12.002 13.66-4.57 50.634-10.534 65.052-10.493 7.731.022 32.102-4.349 33.854-6.1 1.741-1.742-2.788-27.354-4.47-40.246-2.41-27.173-10.143-53.203-16.919-79.396-18.222-33.38-54.664-48.512-85.177-68.422-13.61-9.946-29.498-14.872-43.56-24.153-9.667-6.394-19.859-11.55-28.185-19.713-14.089-13.263-28.292-26.31-41.6-40.401-18.534-20.202-25.839-26.942-32.537-30.023-3.555-1.635-9.388-4.849-12.963-7.142-15.622-10.019-20.397-14.409-49.449-45.459-3.822-4.085-16.085-16.76-27.25-28.166-11.165-11.407-20.3-20.984-20.3-21.282 0-.298-2.138-3.711-4.75-7.584-9.193-12.96-18.333-24.737-18.075-40.947 2.77-7.392-3.136-12.948-3.787-19.52 4.637-2.397 8.849-7.352 14.038-8.428 26.13-17.506 58.276-20.225 88.073-27.832 32.719-13.46 64.438-6.337 97-7.836 30.63 2.536 34.458 7.746 57.713-18.868 15.107-14.345 26.199-22.284 45.383-32.486 13.973-6.888 37.094-22.998 52.784-23.978 26.052-7.088 51.818-10.749 78.864-12.105 29.176-3.29 57.548 4.722 86.27 8.031 22.959 3.17 48.11 7.769 68.316 19.92 37.668 14.068 63.054 30.351 95.17 53.165 23.818 20.188 45.376 44.18 63 70.064 31.457 36.808 47.44 83.174 76.032 121.73 12.748 14.841 19.336 33.513 29.879 49.69 12.56 18.574 29.527 33.613 40.696 53.15 10.47 25.898 28.909 46.743 45.024 69.076 19.27 32.968 39.54 65.37 57.894 98.877 12.494 12.29 13.26 51.98 26.122 56.66 45.63 15.14 102.95 27.456 139.53 42.672 35.262 14.67 60.095 37.147 80.494 72.566 13.26 24.936 18.97 52.703 22.39 80.5 1.191 13.868 4.054 27.441 7.038 41 5.034 28.243-.538 58.15-2.17 86.546-4.856 44.627 5.339 84.972-33.383 114.28-18.074 6.376-41.31 14.7-58.261 5.036-2.882-1.776-21.271-12.903-29.491-14.386-8.16 14.858 6.914 71.251 11.115 92.2 3.529 16.102 4.068 20.536 5.574 45.827 2.996 50.33 2.634 90.779-1.009 112.5-2.178 14.63-2.756 29.428-5.62 43.96l-2.112 9.46 3.38 2.825c13.965 7.017 26.274 17.08 40.04 24.337 7.638 3.87 13.38 9.763 17.332 17.786 2.867 5.82 4.565 7.887 9.236 11.238 6.714 4.817 10.272 10.69 10.272 16.954 0 7.064-3.716 23.28-6.36 27.756-3.573 6.049-14.218 18.546-26.56 31.184-8.407 8.606-12.6 12.04-19.275 15.784-12.807 7.184-47.759 21.26-58.832 23.692-8.14 1.788-20.662 5.57-41.474 12.53-2.75.92-8.825 2.772-13.5 4.116a1723.96 1723.96 0 00-18.176 5.37c-11.976 3.62-40.765 7.917-74.324 11.096-15.212 1.44-14.862 1.325-14.132 4.673 2.127 9.761 2.811 26.911 2.143 53.738l-6.647 87.541c-1.452-34.418.446 32.395 12.258 20.957 15.397-5.693 39.945-10.642 66.636-11.33 30.189-.78 36.838 4.683 52.488 5.808 16.108 5.85 42.016 18.852 47.776 34.307 10.269 12.313 16.128 20.442 15.398 34.525 24.59 17.076 31.228 35.31 10.224 60.51-20.876 15.517-49.82 8.935-67.851-7.718-20.618-22.266-9.975-28.73-7.136-52.747-20.61-3.745-23.93-22.31-70.337-3.945-11.685 6.175-23.908 9.93-37.098 10.94-4.896.222-20.519 20.53-21.495 20.573-8.896 10.378-6.696 25.006-11.093 37.28-3.483 12.631-5.198 25.7-8.793 38.3-8.565 24.613-15.898 37.078-16.461 40.946-.674 4.627-12.981 16.353-9.465 18.427 6.189 8.546 14.83 19.072 12.123 31.156-3.288 17.653-.09 15.073-11.323 26.42-8.233 9.216-14.181 13.327-24.384 14.857-10.397 3.086-20.777-6.904-29.332-11.48-8.287-4.22-11.517-18.649-12.637-33.6 10.69-32.95 3.807-41.055 2.695-53.636-1.256-14.213 3.596-30.67 9.821-48.318 3.928-20.464 31.152-47.905 16.292-65.076-44.152-26.217-71.82-7.208-109.06 9.638 0 0 16.798 44.05-8.616 72.114-43.787 15.992-60.2-10.063-67.267-46.048-4.139-12.792 23.526-44.622 23.526-44.622s1.765-29.574 23.562-43.843c22.853-22.026 34.97-16.504 63.996-25.33 17.22-3.852 30.418-4.66 49.776-7.97 21.371-2.428 15.616-3.724 29.545-8.235l-5.319-54.9c-.104-15.676-.62-36.15-1.147-45.5-2.007-8.615 4.673-44.407-3.533-43.992-4.55 1.044-39.954 5.498-51.736 6.51-6.82.585-18.7 1.65-26.4 2.366-15.74 1.465-38.295.675-57-1.995-13.021-1.833-26.102-1.79-37-9.855-13.662-12.543-30.723-15.216-35.56-31.876-12.032-38.594-36.302-31.228-47.021-28.044-17.404 3.797-30.054 6.501-50.373 7.395l-7.546 120.99c-1.006 14.899.426 29.679 1.463 44.5 3.688 27.43 3.044 55.057 1.201 82.617 2.593 42.263-5.128 83.868-6.31 125.38-.243 40.62-6.775 80.682-8.334 121.19-.81 49.47-1.983 94.813-8.545 143.8-4.855 14.923-6.556 30.379-9.11 45.852l-31.865-2.425zm393.19-205.64c7.215-6.071 5.302-14.592 2.518-17.376-8.093-15.685-23.437-14.297-26.21 2.239.178 15.65 9.601 17.338 13.145 19.263 3.775 2.05 7.127-1.248 10.547-4.126zm14.843-85.274c2.338-8.157 8.115-33.756 8.913-39.5 1.455-13.44 6.058-26.199 8.12-39.5 1.57-10.932 6.372-24.249 10.188-28.25 10.46-4.85 18.345-11.706 29.748-14.69 19.463-10.336 30.178-20.953 52.217-26.936 39.423-15.925 58.794 10.947 112.12 17.502 12.487-20.353-51.967-38.905-75.287-39.468-27.834.271-32.38.548-41.736 2.544-37.428 17.952-39.236 21.981-66.25 15.961-1.704-3.223-12.215-26.316-9.552-51.798 2.283-45.254-.53-94.357.515-139.67-.25-.25-2.61.11-5.244.8s-8.838 1.782-13.788 2.427l-9 1.173.212 2.95c-3.821 52.424 1.93 92.543.53 143.13-.308 7.86-.036 13.623-.863 28.037-10.715 6.923-16.449 10.689-33.455 7.28-24.111-2.735-25.288 4.107-59.862 2.371-24.453 2.614-64.458 23.252-81.716 43.203 10.984 14.415 28.355 3.656 34.157-.78 15.074-1.115 28.708-10.457 36.335-15.522 24.449-11.812 38.354-7.754 62.324-1.908 17.978 8.536 32.576 2.939 45.586 15.965 4.432 6.431-1.303 24.81-3.3 33.174-4.29 16.682-7.175 25.761-10.962 34.5-3.922 9.049-10.45 26.053-14.972 39l-8.015 40.5c7.044.417 14.097.706 21.128 1.306 7.863-5.999 9.31-24.198 11.904-33.806zm-156.79-71.563c-1.894-6.777-16.072-11.259-22.92-6.182-2.445 1.812-10.234 14.358-10.234 19.132 0 12.284 11.497 17.564 18.637 17.564 18.412-7.704 16.581-14.764 14.518-30.515zm393.53-14.842c6.963-7.89-3.402-19.109-11.374-24.324-5.624-3.68-18.867.565-18.752 9.52-2.016 15.271 17.241 28.823 30.125 14.804zm-713.9-126.01c8.837.325 47.229 35.707 47.229 35.707l-.139-18.581c-2.715.01-23.987-55.358-41.898-73.933-6.201-12.92-6.093-18.826-4.915-33.355 16.496-35.62 20.27-70.43 36.1-98.196 3.473-4.214-14.485-13.552-8.049-12.236-14.504 10.534-26.14 43.124-30.702 57.007-13.284 36.574-31.434 58.247-37.932 72.352-22.493 19.46-33.924 31.392-56.735 70.906-15.884 27.515-15.219 85.385-10.588 79.044 11.42-15.634 26.08-55.468 36.68-69.511 10.691-14.653 25.651-21.561 33.54-20.886 4.5 8.624 6.814 28.177 5.751 31.239-1.151 19.676.813 70.33 10.274 80.321-1.394-3.807 10.813-89.605 21.384-99.878zm-175.57-93.417c10.496.453 11.988 21.485 16.942 35.386 6.461 17.624 11.69 20.418 18.678 35.954 3.533-1.158 8.705-139.7-4.147-153.34-1.14-12.677-3.294-14.302-2.938-27.071-.538-30.81 19.361-53.498 30.492-80.971 8.607-7.74 19.907-29.066 25.495-39.191-1.614 4.03-22.955 1.054-22.585-7.079-6.028 13.57-10.988 30.215-19.879 42.064-7.584 25.408-22.549 45.474-24.548 72.492-1.042 6.787-6.174 13.691-12.348 18.365-9.068 7.463-20.555 13.707-29.508 21.316-43.226 17.731-91.229 68.91-103 121.68 18.488-12.699 35.625-25.63 51.75-33.96 6.527-4.128 25.259-23.502 33.589-24.433 4.624 7.777-10.257 64.318-13.411 83.415-2.034 12.316-6.932 31.47 3.672 41.53 27.865-24.835 40.26-102.92 51.742-106.16zm227.27 90.809c-.193-11.616.073-71.546 1.168-78.48 2.005-12.694 3.419-59.005 1.86-60.884-1.08-4.268 11.06-43.068-2.239-34.219-.947 3.293-12.218 28.52-15.695 38.696-2.205 20.579-19.413 49.45-12.839 62.92 5.084 13.459 7.882 25.105 13.39 36.283 9.762 21.775 15.933 51.278 14.355 35.684zm184.29-217.2c9.403-6.094 26.575 9.975 32.637.128 0-1.01-4.222-5.938-9.383-10.95-12.336-12.067-21.44-27.304-28.462-42.999-5.314-13.258-8.196-19.17-12.85-26.367-15.417-22.158-19.543-48.915-27.276-74.146-7.526-24.23-9.612-49.544-13.673-74.445-4.904-21.773-.693-43.024 2.596-64.5 1.505-23.78 10.61-46.823 12.055-70.552-.011-5.88 5.995-40.204 7.92-45.26 4.718-12.39 6.48-44.727 3.669-67.338-1.19-9.565-1.912-12.089-5.077-17.75-3.594-6.427-4.8-7.572-5.971-5.677-.543.879-6.137 4.404-24.048 15.158-4.4 2.642-9.241 6.385-10.758 8.318-3.367 4.496-9.088 4.47-14.013 6.182-11.753 2.932-22.34-5.076-34.23-6.424-15.457-1.55-29.167-4.203-50-9.672-23.684-6.217-29.207-7.433-34-7.489-4.685-.054-19.102-3.177-22.116-4.79-21.887-7.583-34.584-12.6-55.417-22.756-12.03-6.692 1.802 11.09-10.18 2.313 4.65 10.655-8.247 13.585-5.17 32.075 18.313 23.306 64.241 87.223 105.37 134.66 17.085 22.255 37.726 41.536 57.036 61.896 12.04 12.597 23.221 25.957 31.477 37.609 2.144 3.025 6.46 8.278 9.59 11.674 7.082 7.679 8.535 12.016 9.33 27.826.33 6.6 1.086 14.025 1.678 16.5.63 2.633 1.002 13.421.896 26-.1 11.825-.139 37.696-.087 57.492.05 19.796-.343 38.471-.877 41.5-6.522 100.12-12.637 92.879-12.637 92.879 50.645-13.07 74.413-7.43 101.96-21.091zm111.98 77.189c5.037.067 21.309-.272 36.159-.753 17.191-3.154 53.003-1.551 67.517-6.737 9.132-1.127 18.05-2.667 27.307-5.391 12.773-3.815 26.236-3.806 39.176-6.608 5.977-1.916 13.443.22 18.736-2.475 18.456-4.31 37.137-7.114 52.764-7.92 51.232-1.772 101.79-21.835 148.72-41.942 16.768-10.675 33.33-20.77 44.835-37.311 6.697-10.05 7.516-12.616 4.872-15.26-30.493 29.538-61.04 48.367-100.93 61.648-19.38 5.723-37.532 14.605-57.594 17.78-10.038 2.087-20.41 2.592-30.406 4.876-2.284.614-13.678 1.086-26.55 1.1-17.916-2.158-33.741 6.842-51.498 7.024-70.243 8.99-156 29.216-228.45 22.604-5.436-1.04-11.638-5.592-24.262-17.8-15.731-27.291-46.85-24.426-18.96 3.143 13.464 10.728 23.333 23.11 41.223 26.11 20.619 6.294 39.2-2.232 57.34-2.088zm70.702-42.422c13.719-3.87 27.866-6.67 42.117-7.385 12.759-.466 25.268-3.568 37.84-5.707 27.391-4.058 54.3-10.725 81.5-15.906 21.856-3.353 43.573-7.546 65.5-10.446 21.443-2.95 42.245-9.417 63.149-14.884 7.713-1.251 13.538-6.824 20.313-10.218.405 0 5.194-2.524 10.641-5.608 11.619-6.579 25.373-18.508 27.934-24.227 8.134-17.563-10.647-22.697-22.73-30.824-8.218-3.43-15.853-12.028-24.673-13.755-.775.297-3.282 4.631-5.572 9.63-9.04 14.687-1.48 42.958-43.311 42.155-18.756-2.772-49.532 8.926-67.97 14.659-24.34 3.886-47.085 11.803-70.281 19.675-15.49 1.106-30.05 10.209-45.532 9.211-19.336 5.633-40.186 7.055-60.468 8.732-28.186.602-55.473 9.393-83.5 10.676-18.224 1.685-36.939 2.222-53.25 10.98-7.07 3.313-9.75 5.067-9.75 6.382 0 2.387 11.283 12.063 17 14.578 8.715 3.834 13.206 4.56 28 4.525 30.42-2.658 63.359-5.923 93.043-12.244zm-352.48-157.82c-14.32 18.42-30.482 13.842-49.244 27.084-6.07 5.613-10.135 3.5-7.86 35.973 6.103 38.452 42.906 75.799 49.04 68.981 0 0 9.897-100.84 8.063-132.04zm236.99 116.39c12.896-5.07 26.652-8.744 40.574-9.113 19.153-3.441 38.567-5.643 57.876-8.456 28.004-2.84 56.01-5.849 84-8.967 21.182-2.36 42.199-6.538 62.29-13.758 12.858-3.908 25.901-7.554 38.979-10.785 9.406-2.235 45.498-12.941 53.731-15.938 25.306-9.213 32.89-3.94 41.05-16.43 10.141-15.52 13.34-42.615 16.431-56.588 2.503-11.534 3.573-23.284 5.466-34.931 4.258-25.502 5.469-50.612 4.707-97.653-.958-22.588-1.168-73.26-11.668-93.5-8.06-14.851-10.94-34.02-12.559-51-3.873-27.067-9.35-53.762-12.928-80.898.096-21.324-10.743-39.668-16.042-59.602-1.367-5.821-2.754-10.115-9.37-29-6.67-24.551-14.069-48.92-20.66-73.5-11.755-33.003-16.588-67.744-30.46-99.596-11.188-27.134-22.667-54.288-32.366-81.984-4.995-21.465-15.055-40.644-25.275-59.92-11.55-22.572-24.764-44.087-36.978-66.293-27.71-61.646-73.426-108.76-109.75-164.46-16.143-28.397-35.597-54.607-50.469-83.75-18.646-38.995-45.392-73.362-71.937-107.24-51.513-57.302-138.08-93.44-213.67-103.76-35.998-3.484-73.359 1.515-108.26 10.913-17.99 2.218-33.145 12.173-49.393 19.14l-63.583 41.353c-.117 3.247-.94 10.84-1.827 16.872-1.23 8.36-1.337 11.236-.445 12.095.879.848 4.926-2.741 16.328-14.477 8.337-8.583 17.634-17.41 20.659-19.614 4.784-3.488 18.51-10.624 25.666-13.345 9.326-3.546 27.618-2.737 36.834 1.628 17.788 8.852 24.244 25.098 23.504 44.1-1.373 16.921-2.457 23.08-5.256 29.858-6.068 16.697-11.37 33.746-15.714 50.976-7.921 25.6-14.542 45.237-29.954 67.992-5.973 5.505-5.233 14.505-11.309 19.672-7.576 6.252 5.577 17.844 9.665 22.51 2.714 2.976 6.314 7.356 8 9.733 11.286 20.572 33.147 30.418 47.9 47.723 16.009 19.167 30.433 40.402 40.666 63.277 9.4 21.788 20.143 43.008 32.792 63.095 14.296 26.519 27.868 53.133 44.91 78.103 12.75 19.03 31.45 32.849 45.906 50.414 3.81 5.304 4.527 5.73 6.22 3.69 1.07-1.29 4.7-12.244 7.524-22.707.816-3.025 3.31-10.81 5.542-17.303 4.445-12.932 7.098-26 7.103-34.993 0-4.817.417-6.21 2.457-8.25 2.877-2.877 3.664-2.967 7.985-.916 3.854 1.828 6.734 5.487 8.631 10.962 1.77 5.108 1.939 33.078.239 39.5-4.766 19.318-8.715 38.872-15.845 57.5-8.703 21.257-15.98 43.07-25.488 64-3.893 6.555-19.848 38.589-21.008 42.178-.68 2.102-3.5 7.872-6.27 12.822-8.836 15.792-11.698 22.294-11.698 26.572 0 8.859-6.103 13.583-13.536 10.477-8.776-2.495-17.79-3.701-26.464-6.826-1.925-.841-8.225-2.993-14-4.78-8.85-2.935-16.412-7.07-25.831-6.408-18.577-1.297-36.715-5.446-55.67-5.733-38.942.707-50.646.197-71-3.095-15.325-1.379-30.714-.546-46.072-1.67-13.985-1.7-27.818 1.205-41.821 1.086-10.178-.292-20.541.52-38.606 3.027-12.988 1.562-26.028 2.542-39 4.26-12.04 1.604-24.066 3.265-36 5.54-13.364 2.535-26.9 4.019-39.81 8.477-15.9 5.716-32.513 9.815-49.26 12.075-19.367 1.934-49.912 10.55-71 20.029-5.737 2.578-13.13 5.537-16.43 6.575-32.713 11.958 1.161 10.627 13.84 8.864 6.964-.957 10.888-1.015 15.267-.23 5.407.971 13.27.957 72.893-.13 7.15-.131 16.15-.857 20-1.614 11.11-2.185 58.49-1.628 89 1.047 6.05.53 19.325 1.402 29.5 1.937 28.684 2.023 56.444 10.377 85 14.008 15.39 1.37 29.8 5.107 56 14.522 4.775 1.716 11.057 3.007 17.29 3.554l32.402 12.435c18.856 8.27 38.878 18.94 58.303 25.5 28.47 7.41 57.418 12.816 86.004 20.103 12.34 1.462 52.664 12.872 61.045 9.348 12.209-9.75 26.53-16.287 38.799-25.966 16.206-11.554 33.817-20.549 48.15-34.54 12.969-13.726 23.814-29.248 35.489-44.08 5.552-7.093 11.885-14.512 24.55-28.764 13.935-15.739 24.41-34.02 34.653-52.259 1.202-2.153 5.318-8.06 9.146-13.129 7.87-10.279 13.697-21.875 20.33-32.952 4.894-8.106 11.485-19.806 14.647-26 7.258-13.566 15.193-26.72 22.344-40.352 9.372-18.099 11.326-20.318 16.243-18.449 3.285 1.25 7.486 7 9.147 12.521 2.98 17.188-9.67 35.162-18.154 49.018-8.892 14.715-17.044 29.86-26.063 44.5-11.507 19.546-24.36 38.251-36.322 57.5-7.743 12.447-14.939 25.352-24.53 36.5-7.17 7.492-38.149 47.663-42.67 55.332-3.276 5.556-11.04 15.213-22.446 27.918-6.945 7.737-17.592 16.535-25.453 21.034-2.129 1.219-4.086 2.769-4.348 3.444-.589 1.515 5.957 14.487 10.27 20.352 5.645 7.675 7.021 13.183 8.924 35.71 2.557 30.276 1.956 42.383-3.26 65.71-1.979 8.847-5.491 33.327-5.49 38.263-3.012 22.83-7.731 45.424-11.04 68.236-3.072 17.788-5.708 35.45-3.554 53.5 4.108 27.561 7.019 55.357 15.536 82 6.244 24.926 14.34 48.338 27.542 70.5 10.824 18.951 17.223 38.963 32.514 55.27 8.176 5.97 10.82 8.678 14.142 14.48 3.072 5.366 3.746 5.91 5.409 4.37zm-304.11-121.11c16.987-12.5 42.461-24.307 60.024-35.979-54.934-4.218-28.512-3.872-100.29-9.688-24.417-1.688-49.268-5.79-73.738-4.82-5.246-5.507-13.389 1.645-15.326 5.36-5.77 19.072 7.917 41.48 24.704 50.312 91.703 2.358 55.44 10.306 104.63-5.185zm93.333-121.07c.387-2.008-12.238-17.448-23.348-28.554-10.961-17.559-30.504-29.063-42.653-44.434-13.125-17.907-27.093-36.11-36.852-48.027-16.882-33.301-38.828-54.347-63.092-81.687-.932-1.42-7.495-8.467-14.586-15.66-13.332-17.277-31.664-31.334-44.246-49.077-1.84-2.75-7.25-9.05-12.023-14-8.72-9.044-15.281-17.187-20.034-24.864-3.265-6.167-10.721-4.253-16.557-5.863-12.401-1.531-24.097-6.379-36.271-8.801-7.13-1.207-13.717-4.243-20.846-5.442-11.411.628-13.763 4.766-26.562.547-6.754-2.484-22.331-3.887-51.128-4.605-33.531-.836-90.552-.098-94.931 1.23-4.348 1.97-5.248 7.616-7.81 11.388-5.697 7.738-7.13 13.291-7.336 28.41-.18 13.238-.397 14.626-3.966 25.5-4.524 13.78-18.106 40.012-24.396 47.117-4.55 5.138-15.117 11.968-21.137 13.66-13.36 4.194-27.404 4.936-41.032 7.646-7.804 2.03-18.555.591-40.71-5.45-31.216-2.73-58.303-10.981-87.758-19.527-20.166-6.657-32.13-16.321-38.625-36.945-2.912-11.073-2.467-21.181 1.727-39.238 9.42-33.92 17.836-68.09 26.362-102.26 10.462-37.84 24.16-75.148 40.057-111.04 14.542-35.962 34.072-69.625 48.88-105.46.93-4.975 3.765-8.497 6.841-8.497.837 0 2.924-.854 4.64-1.898 7.536-4.59 22.88-4.762 49.117-.554 4.95.794 12.284 1.446 16.297 1.448 9.23.01 27.146 9.204 52.1 14.955 17.54 6.315 29.921 23.141 38.693 39.093 8.448 13.763 9.991 27.85 7.383 43.73-3.044 10.94 1.275 9.893 12.33 5.863 10.575-3.856 9.033-2.916 5.214-13.263-13.652-36.988-28.836-58.873-61.774-89.373-21.152-18.12-36.428-40.446-56.186-60.412-17.62-17.648-37.597-41.176-44.397-48.506l-37.1-37.37c-20.652-3.145-48.072-2.782-72.738 1.565-26.767.474-50.863 1.29-77.545.58-19.8.153-38.221-.2-39.046.16-2.135.932-16.241 23.31-21.316 29.601-12.42 15.392-26.594 30.831-37.35 49.176-7.945 9.786-18.244 26.638-19.79 32.192l15.865-9.054c4.599-14.636 14.25-17.421 23.1-19.952 9.954-2.847 14.98-1.856 21.438 1.362 6.608 3.293 14.319 11.394 14.344 17.157.05 12.004-1.637 14.119-6.28 23.274-1.934 3.813-4.104 10.016-5.766 14.727-6.922 19.618-13.335 30.778-29.184 47.877-20.087 21.67-22.7 32.009-29.03 40.332-7.557 9.937-25.887 14.034-33.335 17.506-12.26 5.293-25.147-.443-34.093-9.656-5.903-6.897 4.495-25.015 10.066-41.607 13.35-12.787-2.875 7.407 10.624-13.612 16.999-55.051-29.221 29.504-43.364 57.116-16.633 25.918-30.293 49.659-50.016 75.623-14.257 12.97-8.864-13.31-8.875-31.23.01-32.873-2.937-50.512-1.75-57.556 2.052-12.172 9.129-80.14 9.051-96.721-.264-74.206.874-93.106-1.09-129.12-39.792-8.24-85.032-10.125-125.88-11.498-29.564-2.792-59.316-2.636-88.545-4.056-23.897 3.243-45.764-7.619-68.95 1.361-1.771 1.296-1.75 1.496.557 5.238 1.319 2.14 5.332 7.08 8.918 10.978 3.586 3.898 8.095 9.658 10.02 12.8 6.329 10.33 13.616 21.179 32.994 49.113 3.816 5.5 6.953 10.302 6.972 10.67 8.758 14.052 17.83 28.023 25.149 42.903 2.538 5.279 6.97 13.055 9.85 17.28 6.108 8.963 15.03 26.808 24.321 48.647 10.837 20.818 19.45 42.694 30.735 63.274 9.459 14.602 18.166 29.592 26.104 45.08 15.081 27.607 29.172 55.939 46.185 82.44 12.06 23.147 25.19 46.11 34.22 70.687 33.17 54.5 61.341 113.49 94.71 168.55 23.908 29.948 38.832 65.425 58.017 98.266 3.527 5.726 5.567 12.17 8.533 18.2 20.472 22.83 79.548 18.314 110.61 20.873 28.176-2.47 43.29 1.9 71.85 2.197 54.143 1.172 103.44 7.837 157.84 9.985 58.703 7.894 120.96-3.755 178.09-2.095 62.491 12.294 130.44 9.79 194.97 19.131 36.335-10.093 198.71 8.477 224.63-9.65zm694.43-189.18c30.538-6.441 28.583-66.631 29.071-87.764 1.742-32.864 6.814-67.033-.938-99.5-3.204-12.635-9.162-42.356-10.317-57.546-3.509-19.289-12.956-35.922-22.014-52.954-7.373-13.408-14.831-23.155-21.45-28.033-11.02-8.62-22.273-16.96-32.762-26.229-31.55-15.344-95.228-34.968-129.88-35.488 4.704 19.328 16.728 37.163 24.087 55.552 8.163 16.694 12.347 34.9 16.595 53.009 5.675 17.708 12.343 35.035 16.923 53.15 4.106 19.45 10.296 38.372 15.5 57.539 7.553 20.338 10.769 42.34 19.865 62.086 8.146 18.1 11.132 38.193 13.517 57.791 1.506 13.453 5.912 23.038 7.848 31.71 13.311 5.985 27.067 7.31 39.705 14.697 8.637 5.393 21.342 8.105 34.25 1.98zm-1300.6-32.8c18.839-3.118 22.651-4.145 28.07-7.558 7.892-4.972 12.24-9.244 15.084-14.82 14.949-23.367 20.431-50.09 28.537-75.997 2.887-8.46 1.944-9.187-11.464-8.851-9.554-.298-18.543-1.356-28.072-.141-9.247 1.29-12.095 1.343-16.655.312-10.764-1.91-21.769-1.008-32.5-3.202-10.168-2.66-21.526-.56-29.52-8.411-10.191-11.482-9.662-14.514 4.657-26.662 9.394-9.419 23.278-10.755 34.152-17.508 2.483-1.751 15.077-7.983 34.211-16.928 7.096-3.318 13.314-5.75 29.5-11.538 3.85-1.377 10.505-3.266 14.789-4.198 5.74-1.249 8.143-2.262 9.133-3.85 1.543-2.474 2.664-9.918 1.716-11.394-.601-.937-24.888-13.011-37.346-18.566-10.178-4.697-18.862-12.03-28.901-16.967-11.863-3.555-23.547-28.812-4.978-27.052 6.589.467 12.718-1.648 19.299-.645 13.173-.904 26.676-1.687 39.788-3.934 11.298-2.154 28.545-7.552 29.604-9.266.747-9.84.621-19.768 1.443-30.908 1.955-3.732-1.086-12.627-1.937-21.854-.547-16.155-18.396-24.265-32.11-28.477-16.453-4.403-33.33-5.739-50.136-8.054-15.55-2.976-32.622-4.466-39.135-3.417-3.388.545-6.771 1.499-7.518 2.118-8.733 19.568-17.936 39.174-28.633 57.96-3.152 5.335-7.222 14.11-9.045 19.5-13.718 30.26-23.406 61.843-34.035 93.3-12.304 34.184-13.697 38.45-16.978 52-5.394 20.78-9.908 41.787-15.547 62.5-8.143 26.432-11.186 41.367-10.322 50.664.408 4.382 1.316 7.796 2.462 9.253 1.962 2.495 9.955 6.715 16.387 8.653 38.062 12.37 84.354 30.454 126 23.938zm420.52-66.339c-4.912-1.442-24.709-9.496-35.402-13.252-13.644-4.792-13.938-2.647-1.37 9.994 5.088 5.117 11.5 12.037 14.25 15.378 2.75 3.341 10.117 19.22 19.77 21.443 2.945-10.105 6.693-31.892 2.753-33.563zm-304.48-134.6c3.02-1.062 8.072-2.216 11.225-2.566 7.933-.879 17.954-6.829 19.566-5.927 9.093 5.09-.324-.672-6.613-.449-2.668.095-9.113-.306-13.872.382-4.76.69-9.25 1.622-9.98 2.073s-3.985.715-7.233.587c-4.382-.173-1.47 4.027-2.852 5.278-6.127 5.545-1.55 4.597 9.76.622zm454.83-11.628c4.674-5.202 8.24-11.377 19.604-33.941 4.431-8.8 11.215-21.85 15.074-29 5.888-9.456 9.572-19.934 14.546-29.817 1.178-6.354 14.895-22.276 6.657-26.912-7.143-3.08-12.977-7.767-17.25-13.857-17.256-19.662-36.115-37.502-51.324-58.914-11.447-16.159-20.81-33.5-28.963-51.5-5.818-13.435-5.73-13.268-14.512-27.653-22.26-37.806-36.765-79.623-64.048-114.39-4.895-6.116-10.765-12.073-15.227-15.453-14.178-10.63-26.15-23.487-34.397-39.154-4.494-6.317-6.931-14.457-12.11-20.239-1.592-.61-19.817 1.902-21.545 2.97-.71.44-12.786 1.143-26.834 1.563-14.048.421-30.266 1.06-36.042 1.421-7.801.488-12.649.243-18.86-.953-10.27-1.976-17.14-2.108-17.14-.33 0 2.42 11.678 12.978 31.402 28.39 12.664 13.92 29.147 22.243 44.54 32.584 17.6 7.095 33.164 17.969 49.827 26.865 10.005 4.61 18.778 11.327 28.231 16.904 4.125 2.37 11.775 7.454 17 11.3 10.126 7.452 31.676 28.413 36.367 35.37 6.056 8.985 16.836 43.918 19.536 63.308 4.917 24.794 4.75 50.318 10.666 74.904 7.767 34.727 10.79 71.033 9.481 106.6-.6 5.5-1.31 12.025-1.576 14.5-.622 5.781-6.494 20.992-10.984 28.446-1.92 3.187-3.49 6.379-3.49 7.091 0 1.888 8.68 3.462 19.09 3.462 15.03-1.17 39.675 16.627 52.28 6.441zm-369.18-12.379c18.784-2.29 28.953-3.306 40.816-4.08 18.905-.835 37.355-4.998 56.284-4.878 14.828-.177 29.371-1.89 44.216-1.218 16.938 1.096 33.669-1.03 50.5 1.475 16.964 2.727 46.628 3.837 56.391 2.11 4.46-.79 9.776-1.443 11.812-1.453 3.73-.018 8.797-1.758 8.797-3.02 0-.375 2.475-4.465 5.5-9.09 3.428-5.238 6.631-11.802 8.498-17.409 3.492-10.488 3.733-16.109 2.516-58.719-.56-19.644-6.462-29.847-7.491-30.702-10.615-.77-16.325 5.9-27.023 7.047-8.72.411-17.278 2.824-26 3.093-20.06 1.472-38.785 9.591-58.5 12.746-16.294 2.166-16.966 2.37-47.724 14.435-14.808 5.67-31.042 8.201-46.776 10.114-6.988.697-31.688 7.268-41.5 11.039-12.946 4.976-46.061 13.44-52.653 13.458-2.391.01-6.598.66-9.348 1.451-15.926 4.585-28.062 8.747-36.042 12.36-5.757 2.607-11.752 4.487-16.5 5.176-4.101.595-12.408 2.392-18.458 3.992-8.792 2.326-28.28 6.009-31.794 6.009-.388 0-.706.455-.706 1.012 0 1.752 22.601 11.427 29.122 12.466 2.408.384 6.628 1.317 9.378 2.074 31.763-3.096 66.263 15.916 96.684 10.51zm-631.89-99.129c9.05-13.897 15.979-25.647 17.651-29.934 8.233-15.434 19.628-28.907 26.564-45.087 10.717-23.325 31.578-49.902 46.991-71.366 1.65-2.292 7.05-8.796 12-14.454 9.58-10.818 17.849-22.644 27.314-33.559 9.29-12.839 16.819-26.922 25.186-40.423 3.025-5.085 6.884-11.353 8.575-13.928 6.866-11.687 13.474-23.394 22.395-33.682 10.043-10.869 27.64-35.528 36.038-50.5 7.763-13.839 22.808-36.294 30.45-45.447 3.695-7.784 28.231-30.743 22.922-37.684 8.098-16.777 9.687-33.242 9.572-50.869.63-32.857 6.288-48.198 3.811-63.643 2.73-22.692 1.674-48.372 3.234-71.069-1.792-15.694 8.005-33.767 1.842-48.93-.341-30.305 7.637-76.011 4.083-107.03-2.353-20.538-.4-41.608 1.898-62.191-.433-10.725 1.174-49.458-5.212-56.138-.62 0-16.616 16.702-24.86 27.765-30.566 32.803-46.843 59.606-74.544 95.058-20.784 25.309-41.926 50.341-62.705 75.674-22.357 26.839-44.662 53.571-64.966 82.003-14.858 20.81-19.186 26.166-31.839 39.396l-40.324 44.604c.299 3.85.985 11.95 1.524 18 1.158 12.993 1.55 90.778.883 175.5-.388 49.43-.765 62.055-2.059 69-3.83 20.565-4.531 39.395-4.67 125.5-.06 37.973-7.477 105.09-9.95 124.81-.828 6.6 1.781 28.121 1.79 29.123 3.795 4.472 14.282-27.237 16.406-30.504zm.16-72.434c.811-16.645 3.065-40.902 4.486-48.27 1.789-9.281 5-43.344 6.258-66.383 1.316-24.105 1.543-43.187.88-73.848-.232-10.725-.334-36.925-.227-58.223s-.238-42.673-.769-47.5c-4.527-31.278-1.38-62.898-1.47-94.372l.888-49.511c14.937-12.855 23.653-31.56 34.548-43.048 7.624-7.878 17.254-18.802 21.4-24.276 18.275-22.347 36.766-44.581 56.016-66.102 18.545-18.034 33.03-39.309 48.324-59.967 14.914-15.205 32.108-37.331 47.713-60 2.296 0 9.98-11.22 17.462-25.5 7.66-9.978 31.975-33.594 44.438-48.66 4.158 23.888 1.725 57.729 3.051 80.015-7.085 34.994-1.182 62.592-.912 103.11-1.996 57.709-6.482 97.164-9.719 145.81-.113 28.453-1.301 56.802-2.61 62.316-3.612 19.331-9.52 26.171-23.997 42.875-11.288 16.31-17.693 29.75-28.596 44.354-36.196 44.844-65.066 95.922-95.564 144.5-22.207 25.272-35.675 57.277-55.976 85.221-19.135 25.7-26.813 34.037-47.037 59.506-11.114 5.831-9.883 22.273-17.083 14.708-3.263-4.668-1.74-11.455-1.504-16.75zm56.638-85c24.859-33.883 48.439-67.239 68.409-104.13 14.142-20.34 26.273-41.698 40.673-61.814 39.883-61.918 60.374-72.806 82.676-118.98 2.462-34.659 8.936-97.015 9.587-108.08 1.577-16.778-1.092-34.661-.352-51.496 2.312-52.557-1.364-115.29 4.033-167.84-.718 0-11.99 14.673-15.698 20.586-7.785 12.414-12.646 10.432-20.25 19.422a1444.179 1444.179 0 00-26.853 35.085c-19.9 20.927-25.72 34.118-42.933 52.83-9.26 9.9-29.432 34.461-39.79 47.356-24.653 34.009-47.863 56.295-78.19 88.207-.347 41.194-1.85 64.199-2.02 100.35-.441 11.202-.188 16.661 1.113 24 3.427 38.2-1.615 78.868.192 117.19 2.328 41.095-2.24 81.277-5.086 126.4-9.012 36.627 14.285-6.02 24.49-19.086zm738.49-224.67c7.68-1.915 2.507 2.214-.577-1.707-1.395-1.774-2.463-7.947-9.063-9.959-18.294-3.635-31.411-.29-47.398-2.863-22.134-4.224-41.311-1.666-81.87-18.258-13.777-5.636-25.186-14.775-49.861-32.68-5.287-3.837-18.94-14.03-23.697-18.228-8.505-7.507-37.85-40.816-29.346-18.261 16.422 29.807 35.218 40.99 62.17 65.157 6.25 7.956 30.9 23.058 39.386 28.497 14.66 5.661 30.194 11.42 45.8 14.23 5.225.663 50.095 3.343 55.32 4.067 13.732 1.903 29.459-7.58 39.135-9.993zm28.868-32.581c8.228-10.144 14.879-18.113 19.199-30.375 3.287-9.742 7.088-21.12 9.897-31.02 13.606-30.101 12.094-35.206 13.16-49.044.653-8.499-6.674-21.357-12.313-28.807-6.428 1.776-18.315 4.178-23.203 7.075-1.96 1.162-9.927 2.899-15.703 8.535-13.69 6.958-24.809 12.984-38.939 29.53-.473.474 11.332-8.216 12.041-7.444 13.181-34.316 91.174-22.812 56.87 30.734-.155 6.864-4.573 10.506-21.633 32.15-9.977 12.66-16.865 8.484-27.22 13.707-1.844 1.347-1.784 1.693 1.899 10.998 3.384 12.116 10.224 26.02 12.146 26.02.603 0 10.638-8.402 13.799-12.06zm-57.708-14.272c-2.477-8.413-5.068-16.688-8.255-24.862-6.533-16.495-11.442-41.852-13.691-70.716l-1.169-15-3.18-1.589c-1.748-.874-4.401-2.39-5.895-3.368-3.644-2.388-14.23-4.513-19.175-3.85-2.37.318-8.082-.351-14.018-1.643-14.694-3.31-29.886-.068-44.73.967-15.244-.196-29.197 6.312-44 8.85-14.843 2.164-29.317 6.18-44 9.17-5.4 1.028-26.96 7.938-18.065 14.941 1.89.624 6.872 3.844 11.071 7.155 8.766 6.395 11.053 8.94 22.742 20.598 36.458 20.992 49.616 38.796 75.336 51.54 19.52 7.873 56.456 19.099 69.608 17.948 14.223 2.58 27.686-.198 41.821 2.63-1.379-6.106-2.486-6.726-4.399-12.771zm-770.19-672.07c-.35-.567.05-.735.94-.393 1.733.665 2.05 1.382.612 1.382-.518 0-1.216-.445-1.552-.989z"/><path d="M1229.2 635.32c-39.067 1.266-76.957 12.369-114.8 21.188-10.822 2.806-31.772 12.108-20.105 25.054 37.33 28.391 73.629 59.387 114.68 82.717 35.559 14.555 74.439 24.029 112.98 19.672 14.203-7.606 1.287-24.826-.7-36.094-10.159-29.965-15.128-61.415-17.469-92.864-9.278-17.96-33.65-17.208-51.092-19.467-7.819-.412-15.67-.458-23.497-.205z" fill="#fff" color="#000"/><path d="M1236.6 634.02c-45.733.997-90.961 11.876-134.15 26.092-9.548 2.656-17.926 16.311-7.377 23.155 34.36 26.195 77.441 63.704 114.82 82.102 31.86 13.926 62.813 23.272 97.88 22.336 19.914 8.661 27.89-3.008 21.243-17.418-9.68-34.994-19.768-70.165-22.814-106.69-1.25-20.749-24.41-26.599-41.46-28.21-9.332-1.117-18.748-1.545-28.142-1.366z" fill="#ff7f2a" color="#000"/><path d="M1100.4 701.09c-7.323 5.879 9.725 16.41 12.773 22.199 26.677 31.178 57.155 60.489 93.304 80.463 37.601 18.172 83.51 26.666 124.45 21.448 9.297-2.309 30.471-9.535 15.368-19.398-11.054-12.178-26.152-5.517-40.846-9.358-42.542-5.779-88.537-8.875-122.53-37.484-23.121-16.489-50.973-35.465-71.452-54.796-1.638-1.11-8.974-3.445-11.065-3.073zM1517.8 1998.4c-6.204 12.182-15.082 33.909-25.803 57.764-14.919 39.373-34.041 77.455-63.798 107.01-36.751 35.372-54.517 85.724-41.475 129.76 10.166-4.082 12.135-21.39 19.057-30.532 12.349-21.54 22.12-58.769 50.135-62.908 8.671 1.754 3.165 15.392 5.8 21.366 3.13 28.697-.368 63.932 10.457 90.926 8.857-4.853 4.37-25.936 8.067-35.395 4.581-21.518 12.26-42.837 22.158-62.626 4.966 6.993 14 14.764 20.171 17.248 8.996 6.346 21.78 22.088 21.78 22.088l.65-30.049s-31.27-57.685-42.14-79.978c-.702-27.038 7.436-47.714 11.719-71.341 4.95-18.019 23.89-39.517 29.656-56.866-7.055 4.069-30.25-17.121-26.434-16.461z" fill="#ff7f2a" color="#000"/><path d="M849.35 310.12c-29.373 27.211-56.834 71.006-81.879 102.33-55.504 70.394-113.6 139.23-168.52 210.23-15.964 20.309-34.877 38.451-50.887 58.605.732 98.821 3.421 197.75-3.218 296.43-2.35 73.453-4 147.01-12.355 220.08-.102 9.251-4.79 25.87-.478 34.152 9.097-4.24 14.348-26.038 20.513-34.468 18.26-33.631 39.488-66.072 57.423-99.682 32.04-50.951 75.327-94.13 104.51-147.01 25.942-40.904 56.078-79.193 82.24-120.16 10.288-17.929 27.347-32.608 33.808-52.36 11.215-34.803 9.508-73.291 12.898-109.83 5.832-105.79 8.582-211.76 9.736-317.69-1.42-9.937 3.233-33.903-3.782-40.642zm-18.237 49.179c5.621 41.032.24 82.97-.574 124.31 4.544 85.208-6.524 170.14-9.94 255.18-.537 31.135-27.426 52.004-41.816 77.411-38.187 54.4-74.502 110.32-109.89 166.38-29.797 42.26-54.366 88.293-88.932 127.18-8.174 9.034-16.258 19.074-23.633 28.005-5.487-10.946-.352-24.934-.956-36.816 6.796-53.918 11.449-108.15 10.052-162.56-.673-84.191-4.342-168.55-.08-252.66 4.837-12.288 16.868-21.523 23.79-33.096 38.568-48.188 81.095-93.308 119.45-141.76 26.898-34.983 56.14-67.705 80.872-104.64 13.32-15.934 27.239-32.661 41.666-46.925z" fill="#b7c4c8" color="#000"/><path d="M224.18 1145.4c-.987 100-4.786 199.93-10.089 299.79-3.234 86.519-13.918 172.8-13.433 259.42 5.707 6.495 17.376 3.205 25.204 5.738 6.955-6.529 3.081-20.667 4.8-30.323 2.76-76.31.621-152.9 9.066-228.89.715-45.7-.953-91.446 3.05-137.08 6.639-80.54 7.102-161.35 9.616-242.08 1.381-4.649-1.407-26.793 4.615-14.961 40.214 63.382 66.18 134.19 101.75 200.12 35.912 69.19 74.065 136.94 107.82 207.36 36.222 70.896 64.532 145.71 107.21 213.33 15.48 29.776 33.257 58.414 58.373 81.01 9.528 9.95 22.686 18.39 18.536 34.024 1.218 78.447 2.573 156.95-2.151 235.31-2.123 94.67-3.153 189.38-8.496 283.94-3.596 83.475-2.308 167.05-4.228 250.54-2.006 29.374-4.419 60.457 6.489 88.249 9.565 8.186 29.344.428 26.365-13.866 3.674-50.845 10.179-101.49 9.686-152.59 2.107-107.6 8.02-215.07 12.755-322.57 4.903-76.833 10.11-153.66 10.368-230.69.43-32.787 1.402-65.527 5.782-97.951 2.635-15.454-1.993-33.446 5.875-47.335 17.965-9.43 40.092-3.253 59.698-5.089 132.27 2.99 264.57 1.013 396.85 2.062 75.384 4.387 150.93 5.328 226.36 8.696 44.984 3.382 89.8 9.313 135.04 7.787 16.172 1.459 34.798-3.014 49.452 4.44 3.303 15.446-.723 32.566.397 48.563-1.577 131.83-1.815 263.9-13.042 395.34-4.529 83.924-8.282 167.92-14.345 251.75-8.625 63.958-3.644 128.79-5.114 193.13 5.53 5.219 17.15 5.234 25.068 3.894 10.616-8.01 6.777-24.612 10.109-36.133 6.313-74.586 8.245-149.53 17.745-223.86 7.244-55.2 2.459-111.05 3.953-166.56.676-77.242-2.258-154.79 7.4-231.62 6.698-86.497 14.24-173.33 7.855-260.1-18.658-12.125-43.67-6.47-65.161-7.63-107.22 2.2-214.76.014-321.27-13.38-108.78-12.034-218.41-7.526-327.62-9.416-78.836.392-157.76-1.858-236.54 1.328-41.97-43.83-76.877-93.944-104.84-147.73-52.986-90.969-92.736-189.63-150.96-277.33-24.56-41.196-45.565-84.418-68.08-126.43-17.697-39.54-33.793-80.417-58.557-116.46-18.88-30.273-40.054-67.994-60.176-97.06-8.029 45.304 1.86 114.91-3.185 161.33z" fill="#a5cedb" color="#000"/><path d="M246.36 951.16c-6.15-.18-22.443 2.171-13.082 10.408 54.786 70.012 97.999 147.88 135.29 228.43 39.942 78.014 86.598 152.23 124.2 231.35 36.31 67.856 73.59 135.7 114.71 200.56 16.495 25.609 27.688 54.153 44.739 79.165 20.495 20.616 53.124 15.937 79.643 18.852 95.008 2.158 189.73 9.881 284.56 15.505 52.433 3.037 104.82-5.689 157.16-2.51 62.062 8.49 124.76 11.643 187.1 17.196 72.202-3.867 144.88 2.686 216.87-4.645 7.413.508 13.586-6.555 7.377-12.568-27.762-36.49-63.04-66.096-88.953-103.84-21.45-31.912-44.312-62.729-70.558-90.896-31.752-34.654-63.13-69.242-93.966-104.5-9.869-11.385-26.69-7.663-39.62-13.368-35.38-9.682-72.41-8.798-108.74-12.246-32.476-.31-65.914-3.184-97.811 2.596-18.445 13.864-14.4 40.54-20.081 60.449-7.467 21.57-16.188 46.96-36.338 59.63-28.781 12.649-62.351 14.765-92.883 6.481-34.874-7.065-71.45-11.746-102.95-28.954-21.9-13.648-22.542-43.305-15.687-65.613 16.872-76.776 37.194-152.79 70.53-224.15 14.943-33.249 30.422-66.672 46.247-99.296 19.106-10.677 43.458-4.976 64.41-3.62 24.434 5.463 50.268 10.328 71.994 22.677 19.572 17.342 36.598 41.84 32.966 69.26-.931 7.139.7 19.463 10.68 13.456 7.438-1.87 15.155-8.535 9.358-16.53-14.427-42.742-46.125-75.599-78.072-106.08-40.533-43.182-80.02-88.24-121.85-130.26-40.26-5.411-80.565 3.457-120.97 1.776-23.337.896-47.433-1.503-70.285 1.23-24.423 35.599-57.424 73.77-77.184 112.22 6.14 9.397 17.892-11.454 21.516-17.076 12.036-15.156 38.426-16.25 49.11.546 4.517 18.92-8.31 36.86-14.138 54.234-12.111 27.673-36.301 47.545-51.57 73.222-13.472 15.676-37.658 26.575-57.65 18.17-9.6-3.037-12.863-13.482-7.786-21.995 3.18-12.218 8.266-23.475 15.778-33.333 2.266-7.485 11.238-17.943 5.874-25.136-9.133 1.106-11.338 14.714-17.144 20.696-26.482 44.627-50.712 91.694-83.74 131.42-6.98.275-1.507-12.249-3.658-16.393-1.157-51.995 2.774-103.84 5.938-155.66.713-46.978 2.846-94.172-.232-141.05-9.566-8.672-25.305-5.89-37.326-8.684-77.726-6.255-155.8-10.295-233.77-11.124z" fill="#fde9c8" color="#000"/><path d="M956.04 1132.2c-13.044 4.742-16.532 26.575-23.907 36.884-44.792 85.045-66.25 178.29-89.889 271.03-1.883 14.214-9.917 30.026-4.098 43.988 16.92 14.96 41.219 17.955 62.014 25.157 34.163 9.811 72.162 16.439 106.49 4.077 27.915-15.203 33.517-50.007 44.02-77.223.7-7.492 10.244-20.712.719-25.644-35.89-2.857-73.038.455-108.13-8.743-7.994-3.032-17.28-13.804-8.47-21.106 15.257-17.632 40.486-22.36 60.252-34.035 21.785-11.795 49.907-13.454 70.961-26.004 5.932-5.252 1.024-17.26-7.923-18.237-23.691-13.616-52.206-22.012-70.422-43.168-3.71-6.312-1.67-15.215 7.554-12.512 29.667-2.946 61.834-2.224 88.527-15.97-.396-19.799 2.032-41.536-3.87-60.996-16.043-24.386-49.396-24.707-75.271-29.234-15.016-1.822-33.406-8.476-48.564-8.265z" fill="#c8c4b7" color="#000"/><path d="M1516.6 550.48c-51.247 2.207-103.6 13.638-145.96 44.076-15.382 11.068-33.834 19.731-45.427 34.952-1.721 8.348-5.817 21.41 2.937 26.844 12.391-1.921 19.336-15.884 29.166-23.019 15.152-14.027 34.751-26.517 56.283-21.994 23.236-1 33.934 26.937 31.42 46.515-5.275 35.676-18.65 69.936-30.519 103.95-7.14 24.007-25.074 42.934-32.526 66.542 8.718 19.861 26.676 34.617 40.806 50.807 31.352 25.397 53.933 59.394 70.968 95.676 23.828 45.811 47.13 92.327 76.277 134.98 15.248 19.685 32.693 38.234 50.911 54.832 12.513-1.168 9.937-22.186 15.745-31.654 6.4-17.311 8.833-35.942 13.388-53.619 13.58 6.092 8.377 24.215 9.29 35.996-4.532 45.566-24.088 88.696-41.803 130.73-13.027 29.909-30.256 58.318-40.778 89.479-29.276-1.723-56.065-16.492-85.609-18.657-41.838-5.812-84.164-3.065-125.99-8.171-79.206-2.587-159.15 4.264-236.2 23.003-45.703 12.124-93.192 18.408-136.2 39.412-19.375 2.649-13.525 20.652 4.235 14.978 50.864 1.522 101.63-1.248 152.32-2.872 73.817-.515 147.83 9.218 218.79 28.304 48.07 10.364 90.191 37.413 137.89 48.932 41.881 11.08 84.496 21.763 127.34 26.932 28.712-18.8 59.002-36.63 85.43-58.898 30.484-32.007 58.437-66.871 84.423-102.73 33.094-48.013 59.677-99.983 90.093-149.52 2.536-7.266 7.511-5.065 9.426.683 5.986 20.929-12.436 38.69-20.56 56.488-36.889 62.115-75.198 123.68-120.69 179.76-15.762 22.449-34.884 42.302-56.049 59.506.226 13.222 13.917 24.423 15.2 38.662 5.942 30.444 4.688 61.75-1.57 92.279-6.304 45.696-16.487 91.063-19.604 137.09 3.877 50.43 14.306 101.04 33.806 147.76 16.758 33.012 32.27 68.833 60.522 93.695 12.652 6.443 27.006-4.3 40.095-4.372 61.716-11.499 125.04-12.447 186.36-25.886 49.566-13.335 99.402-27.165 148.46-42.418 19.738-8.17 21.245-33.288 26.324-51.253 14.824-65.715 14.832-133.79 10.22-200.59-.976-30.383-16.467-57.384-19.71-87.26-7.407-36.206-10.19-73.569-18.34-109.37-22.99-70.2-42.023-141.46-63.408-212.18-16.033-45.449-33.806-90.184-50.877-135.04-28.068-57.66-57.08-115.22-92.838-168.3-47.419-64.334-93.378-129.86-130.98-200.26-23.43-37.824-47.409-76.484-80.053-107.03-61.4-51.25-139.8-84.52-220.28-87.908-4.053.018-8.108-.076-12.158.137z" fill-opacity=".923" color="#000"/><path d="M2097.7 1151.6c-14.553 5.085 3.893 32.513 5.887 42.069 36.905 83.51 53.255 175.37 83.832 261.66 9.262 25.484 8.108 55.024 20.106 79.33 24.658 10.272 54.596 31.116 81.528 16.035 28.627-17.774 22.284-57.128 26.468-85.778 4.434-46.157 3.72-92.629-7.533-137.73-8.414-67.833-56.203-131.57-124.03-147.71-27.178-7.648-58.025-26.647-86.255-27.869zM2282.8 1939.4c-7.892 5.347-14.119 13.156-22.131 18.543-24.394 20.095-53.178 34.352-83.269 43.804-23.708 8.424-47.126 16.788-72.239 19.129-23.743 3.864-48.238.932-71.617 7.463-38.427 5.831-77.116 11.287-115.6 17.274-41.014 5.889-82.607 10.843-124.02 7.99-12.282-.504-20.387-11.027-28.389-19.055-6.42-9.05-16.465-18.912-28.449-17.486-8.28 2.495-5.301 13.239-.888 17.896 10.906 12.87 24.042 24.647 39.241 32.24 17.641 8.31 37.501 5.42 56.078 2.868 47.68-2.909 96.137-2.265 142.87-13.855 28.024-5.443 56.535-8.67 84.551-14.116 26.701-4.046 53.94-3.797 80.126-11.176 33.464-8.666 66.209-20.377 97.362-35.305 19.268-11.219 38.58-24.965 49.93-44.637 2.48-3.896 4.102-13.222-3.552-11.578z" fill="#5f8dd3" color="#000"/><path d="M2216 1884.4c-14.189 12.99-11.996 37.62-35.868 39.586-90.07 11.812-173.45 58.32-264.69 63.476-42.714 6.458-95.086-7.238-133.6 19.392-21.607 2.236-16.157 17.137 4.208 21.378 23.234 16.746 53.927 4.82 80.08 4.25 103.65-15.454 207.16-33.624 309.79-54.094 33.247-8.491 70.172-21.754 90.124-51.39 3.75-19.97-22.52-28.005-35.37-37.206-4.66-1.976-9.322-6.018-14.667-5.393z" fill="#93a7ac" color="#000"/><path d="M1989.7 2075c-12.345-3.014-25.665-5.559-17.978 19.994-1.342 52.86-.348 105.74-.375 158.61-18.834 13.058-42.381 2.067-63.464 6.762-39.881.175-80.421 15.745-108.19 44.435-6.099 16.047 20 14.808 28.689 9.66 9.865-6.817 24.28-7.176 34.678-14.586 33.368-20.426 73.842-5.68 107.8 5.506 8.537 11.67-1.544 28.598-3.318 41.498-8.715 34.402-30.272 67.568-33.703 103.11-1.019 19.099 38.73 7.872 38.12-8.611 11.379-39.118 13.909-81.296 28.943-118.99 14.118-18.464 39.759-23.069 58.44-36.61 24.46-13.932 53.924-19.059 80.273-7.728 18.397 4.436 37.623 16.136 56.799 11.978 10.37-11.132-9.493-21.78-17.775-27.047-33.977-16.09-75.881-21.555-111.96-9.273-15.393 5.863-35.93 20.418-51.968 9.563-12.386-22.909-6.154-51.692-8.427-76.891-1.37-37.027 2.411-75.123-1.91-111.47-4.662-2.393-9.79.026-14.682.097z" fill="#1a1a1a" color="#000"/><path d="M1801.5 2338.1c-17.756 2.322-30.554 31.052-11.109 40.764 22.513 15.916 43.676-28.236 19.802-39.315-2.696-1.216-5.742-1.8-8.694-1.449zM1945 2474.7c-16.351 4.784-17.768 28.618-2.898 36.417 15.486 11.558 32.981-18.904 17.387-29.462-3.558-4.142-8.761-7.772-14.49-6.955zM2189.9 2305.8c-22.396 3.435-12.551 36.898 6.762 36.417 16.643 2.693 24.585-19.348 11.495-28.979-4.582-4.933-11.42-8.178-18.257-7.438z" color="#000"/><path d="M1334.1 845.34c-26.071 3.16-53.205 1.21-78.687 5.054 4.161 17.823 28.025 28.66 41.666 41.94 49.158 37.705 114.8 55.399 153.27 105.87 30.817 55.648 30.747 122.22 39.933 183.98 2.615 37.414 8.176 78.516-9.606 112.6 21.933 7.11 47.602 16.692 71.173 13.797 23.627-34.977 44.281-73.136 60.244-112.16-15.92-31.513-47.839-52.768-66.255-83.604-53.23-75.332-77.74-169.83-147.54-233.33-15.038-13.822-19.393-46.01-45.986-35.548l-18.22 1.397z" fill="#fff" color="#000"/><path d="M1437.5 1169.8c-115.72 18.85-228.06 55.467-341.88 83.791-9.533 6.087-43.333 3.723-36.121 21.534 28.177 14.593 61.771 11.876 92.211 17.896 99.048-4.183 198.47-1.956 297.4-7.923 25.753-15.603 21.13-53.907 23.087-80.19-8.168-46.23-2.089-52.746-34.699-35.107zM1428.4 1459.7c-12.213 23.997-5.253 55.704 14.146 70.759 57.876 64.683 112.67 134.24 173.12 197.51 28.07 24.88 31.397 64.472 28.441 100.65 1.38 69.362-6.705 113.59-7.965 182.25 37.897-2.338 69.849-10.891 106.42-19.087 27.375 12.289 25.059-10.679 7.736-24.926-45.577-67.286-68.09-149.51-71.855-230.8 5.324-75.546 30.607-150.03 24.65-226.09-8.338-45.456-34.181-23.902-43.532-7.545-28.77 20.597-61.415.705-92.062-2.593-48.048-10.432-94.166-21.977-139.1-40.133zM1563 1853.7c-.512-1.153-90.627-.79-50.162 114.3 10.074 24.397 43.16 35.881 43.16 35.881s.29-43.222 3.607-60.373c-4.182-10.761 3.395-89.812 3.395-89.812zM1404.8 639.61c-29.376 6.755-64.354 24.109-81.009 49.999.285 16.932 3.827-.493 13.573-8.582 8.835-7.332 36.037-16.709 47.764-7.128 20.605 17.463 5.515 53.818-11.202 66.938-7.76 8.18-27.21 8.27-31.182 10.174 1.334 6.486 4.56 15.931 10.144 26.574 2.791 29.702 22.746 10.233 30.327-4.918 19.544-38.183 34.908-75.51 34.835-119.12-2.07-7.69-6.177-15.088-13.251-13.934z" fill="#fff" color="#000"/><path d="M1128.6 1307.5c-11.185 1.29-21.014-2.616-32.188-1.282-5.439-.134-6.904 1.049-9.325 6.832-2.499 4.799-3.736 7.95 1.23 8.435 9.617 1.323 14.78-1.747 24.163-2.8 6.861-1.601 15.295.487 20.577-4.645 4.02-4.853 1.482-7.286-4.457-6.54z" fill="#fea" color="#000"/><g opacity=".94" filter="url(#prefix__b)" stroke="#000" stroke-width="1.2" fill="none"><path d="M969.06 1145.3l-110.51 326.88M993.02 1150.7l-98.92 329.2M1019.3 1156.8l-95.824 329.98M1044.8 1164.6l-90.415 329.2M1060.2 1200.9l-67.231 263.52M944.33 1161.5l104.32 21.638M938.15 1188.5l101.23 21.638M931.19 1214l97.37 21.638M921.92 1241.1l71.868 17.001M915.74 1264.3l98.142 25.502M908.78 1290.5l98.915 23.956M904.15 1314.5l97.37 23.956M896.42 1342.3l71.868 19.319M884.06 1370.1l54.867 17.001M877.87 1399.5l98.142 27.82M871.69 1422.7l102.01 28.593M864.74 1445.9l101.23 30.138"/></g><path d="M1277.6 654.67c-10.957 2.91-9.229 13.501 5.464 10.929" transform="rotate(-12.422 1304.26 734.462)" filter="url(#prefix__c)" stroke="#000" stroke-width="4" fill="none"/><path d="M1384.669 701.132a6.557 9.29 9.78 11-.063-.565" fill="#fff" color="#000"/><path fill="#5a9cff" d="M818.126 1269.279c30.794 42.278-7.927 104.077-86.482 138.039-78.559 33.96-167.212 27.218-198.003-15.061-30.795-42.278 7.927-104.077 86.482-138.04 78.461-33.917 167.004-27.238 197.904 14.923l-142.144 61.628z" color="#000"/><path d="M777.752 1292.304c20.796 26.56-8.12 67.247-64.584 90.876-56.466 23.63-119.097 21.252-139.893-5.308s8.12-67.247 64.584-90.876c56.395-23.6 118.96-21.265 139.828 5.22l-102.173 42.872z" fill="#c4d3e4" color="#000"/><path d="M700.759 1276.659c-8.64-3.235 4.704 21.225 8.642 31.178 3.939 9.954 8.049 18.155 8.584 18.355 3.308 1.239 2.948-6.298-.964-20.14-4.417-15.631-7.623-26.158-16.263-29.392zm-11.29.394c-9.753-10.21-8.328-22.736 14.058-7.74 11.068 7.414 11.759 8.47 6.65-1.303-4.715-9.015-3.26-12.256 5.774-12.863 5.686-.383 7.909.829 12.886 7.023 10.83 13.478 18.883 11.882 10.257-2.033-2.627-4.237-4.146-8.862-3.375-10.277 2.346-4.308 11.88-2.402 19.035 3.805 3.724 3.23 7.853 5.434 9.176 4.898 3.262-1.322-.615-6.969-6.274-9.137-4.198-1.608-3.888-3.248 3.589-18.992 4.5-9.478 9.291-20.633 10.645-24.788 3.23-9.912 10.367-17.758 14.685-16.142 1.893.709 7.73 14.768 12.97 31.242 8.231 25.875 11.522 32.324 24.16 47.348 14.503 17.243 18.436 24.058 16.202 28.07-.638 1.143-2.577 1.999-4.31 1.9-1.733-.099-13.512-.852-26.177-1.674l-23.026-1.494-4.398-9.856c-2.419-5.42-5.63-10.317-7.135-10.88-4.678-1.752-6.887 6.176-4.6 16.51 2.488 11.248-1.175 20.61-7.184 18.36-2.116-.791-5.59-5.58-7.723-10.641-2.132-5.06-4.58-9.513-5.441-9.894-3.43-1.517-4.617 5.464-2.11 12.397 4.16 11.5 3.198 20.314-2.576 23.59-4.341 2.463-5.265 1.439-10.209-11.333-4.877-12.596-8.938-18.05-10.867-14.588-.377.676.67 8.248 2.327 16.825 3.24 16.77-.211 28.296-8.496 28.379-3.143.03-5.335-3.827-7.62-13.411-3.05-12.786-6.88-18.032-9.6-13.151-.683 1.227-.137 8.511 1.214 16.187 2.903 16.495 1.887 23.056-4.03 26.018-6.624 3.316-7.947 1.878-13.048-14.177-2.596-8.174-5.643-15.207-6.77-15.63-4.572-1.711-5.812 7.055-2.666 18.85 3.413 12.795 2.311 22.454-3.127 27.424-4.775 4.363-6.761 2.277-11.627-12.204-2.49-7.414-5.89-13.99-7.551-14.612-4.038-1.512-14.43 4.81-17.775 10.814-2.258 4.053-.924 6.198 8.353 13.432 14.615 11.395 13.974 15.665-4.356 29.078-26.448 19.35-71.691 35.142-85.68 29.904-5.54-2.074-8.11-15.549-7.204-37.8.698-17.179 1.517-19.807 13.304-42.727 10.834-21.067 13.932-25.573 22.553-32.803 5.497-4.609 11.316-7.886 12.932-7.28 1.615.604 6.663 6.619 11.217 13.365s9.63 12.771 11.278 13.389c2.807 1.05 18.182-7.653 20.362-11.528.544-.967-3.65-6.927-9.318-13.246-9.869-11-11.804-18.876-5.633-22.935 4.655-3.062 23.357 5.818 30.757 14.605 7.154 8.494 12.163 9.746 10.721 2.678-.436-2.136-3.605-7.004-7.044-10.818-6.36-7.054-8.093-17.53-3.41-20.61 6.266-4.123 16.881.27 26.608 11.014 10.655 11.769 17.555-1.216 8.648-10.54zm129.07-1.227c-4.176-3.049-23.038 2.023-25.772 6.929-1.96 3.516-1.52 3.65 14.155 4.303 7.177.3 14.726.685 16.775.856 3.017.253 3.246-.603 1.201-4.488-1.389-2.64-4.25-6.06-6.36-7.6zm-12.882-13.707c-1.734-.65-5.275.382-7.87 2.291-5.31 3.908-4.575 4.75 3.28 3.755 6.381-.808 9.081-4.364 4.59-6.046zm-9.412-14c-2.557-.956-12.99 8.344-12.184 10.861.818 2.551 14.505-4.778 14.37-7.695-.06-1.313-1.044-2.737-2.187-3.165zm-2.949-16.089c-2.045-1.785-4.299.104-13.438 11.264l-4.924 6.013 9.05-4.468c9.257-4.571 12.942-9.64 9.312-12.808zm-38.509 33.39c-3.834-5.797-3.966-5.835-3.62-1.043.197 2.735 2.967 9.985 6.155 16.112l5.798 11.14-2.177-10.096c-1.197-5.552-3.966-12.803-6.155-16.112zm29.387-54.236c-3.205-6.013-3.3-6.049-4.411-1.652-.625 2.471-3.679 10.613-6.786 18.091l-5.65 13.598 7.55-7.649c11.16-11.307 12.931-15.572 9.298-22.389zm-45.183 78.08c-.792-5.104-13.234-21.384-15.607-20.422-1.586.643 3.491 11.57 10.54 22.68 3.993 6.295 6.239 5.294 5.067-2.258zm-49.25 26.693c-3.788-9.4-17.401-27.844-25.553-34.62-2.86-2.38-4.49-2.443-5.725-.226-.95 1.704 2.65 8.368 8.001 14.808 5.35 6.441 12.782 17.634 16.515 24.875 3.733 7.24 7.614 13.474 8.625 13.853 3.18 1.19 2.205-8.599-1.862-18.69zm-26.686 16.822c-3.612-10.071-21.305-32.51-27.446-34.81-6.391-2.393-8.943 1.788-3.993 6.541 9.721 9.335 22.886 27.154 29.755 40.276 6.527 12.468 7.002 12.897 6.081 5.496-.549-4.416-2.527-12.292-4.397-17.503zm-28.123 46.28c-4.21-3.838-10.292-10.643-13.517-15.123-14.94-20.749-19.245-27.216-23.122-34.737-5.375-10.427-8.492-9.103-20.803 8.833-11.305 16.471-17.592 31.948-20.711 50.984-2.179 13.297-.77 31.058 2.347 29.592.852-.4 11.78-7.21 24.282-15.133 12.503-7.922 23.577-14.087 24.609-13.701 1.031.386 2.254 2.56 2.717 4.831.685 3.356-2.133 5.852-15.032 13.315-17.241 9.976-18.35 15.058-1.938 8.887 13.067-4.913 47.706-25.223 48.333-28.339.269-1.336-2.955-5.57-7.165-9.408zm-46.832 6.999c-2.903 1.176-6.726 1.597-8.495.935-4.929-1.846-11.927-17.62-9.638-21.728 5.414-9.717 22.26-6.476 25.425 4.893 2.23 8.005-.045 12.964-7.291 15.9zm55.733-50.965c-1.113-.417-2.568.217-3.232 1.409-.664 1.192.302 2.732 2.147 3.423 1.845.69 3.3.056 3.232-1.41-.067-1.465-1.033-3.005-2.147-3.422zm-14.774 10.182c-.522-.196-1.492.62-2.156 1.811-.664 1.192-.182 2.55 1.071 3.02 1.253.47 2.224-.346 2.156-1.811s-.55-2.825-1.071-3.02z"/><path d="M573.616 1340.15c-14.301 20.846-21.679 45.465-20.02 69.434.856 3.513-.136 9.817 5.413 10.411 12.27-4.993 22.653-13.152 34.102-19.47 4.52-2.376 9.505-6.232 13.985-7.66 2.496 5.177-5.703 8.187-9.236 10.998-5.81 4.489-13.896 7.425-17.846 13.401-1.338 4.654 5.783 5.286 9.177 3.392 18.778-6.545 35.488-17.126 51.49-27.572 5.4-2.661 3.582-8.462-.126-11.494-17.246-17.106-29.838-37.186-42.356-57.002-2.394-4.405-9.573-4.798-12.672-.675-4.586 5.024-8.203 10.706-11.912 16.237zm-.733 26.042c3.137-6.219 12.893-4.491 16.946-.12 4.6 4.876 5.694 14.417-2.078 17.459-3.016 1.56-7.892 2.246-9.296-1.275-2.81-4.675-7.04-10.65-5.572-16.064zM626.464 1298.318c.208 7.394 8.433 12.1 12.332 18.127 9.762 11.64 17.347 24.473 24.838 37.249 3.467 3.05 7.854-1.511 6.104-4.71-2.859-12.737-6.903-25.636-16.22-36.053-5.69-6.498-10.604-15.35-20.443-17.591-2.563-.215-6.043.343-6.61 2.98zM656.596 1280.123c-1.75 6.703 5.118 12.25 8.202 17.827 9.029 11.99 15.991 25.193 24.295 37.594 3.736 3.392 8.467-1.476 6.932-4.998-2.746-19.857-16.187-37.272-31.26-51.794-2.435-2.299-6.968-1.717-8.169 1.37zM638.368 1335.196c-2.648 3.926 2.577 8.659 7.325 7.165 3.95-.807 3.592-5.087 1.932-7.448-1.895-3.394-7.494-3.16-9.258.283zM624.486 1345.77c-2.062 3.27 1.44 8.426 5.978 6.66 3.435-1.408 2.723-5.602 1.411-7.965-1.816-2.632-6.272-1.335-7.389 1.305zM720.486 1268.796c-.564 4.166 2.413 7.962 3.941 11.75 3.135 5.667 5.792 11.793 10.611 16.546 2.608 2.192 7.062.128 6.919-2.915.78-7.35-4.199-13.936-8.605-19.8-2.517-2.727-4.64-6.084-8.336-7.7-1.877-.462-3.954.446-4.53 2.12zM748.443 1260.998c-.881 4.36 1.266 8.714 2.785 12.796 2.417 5.213 4.368 10.687 7.709 15.501 2.598 2.494 7.319-.46 5.952-3.39-1.915-6.872-3.572-13.922-6.917-20.393-1.683-2.285-2.656-6.194-6.377-6.393-1.303-.05-2.684.83-3.152 1.879zM790.101 1281.957c-2.184 2.616-.229 6.484 3.495 6.728 10.448.768 20.974 1.531 31.473 1.673 3.415-.171 4.967-3.68 3.316-6.054-2.38-4.442-5.203-9.646-10.852-11.486-7.279-1.062-14.842 1.227-21.277 4.18-2.438 1.235-4.838 2.769-6.155 4.96zM792.028 1266.34c-1.763 2.448 1.276 5.175 4.266 4.685 4.929-.357 11.586-.578 13.909-5.141 1.827-3.97-3.63-7.701-7.921-6.081-4.168 1.01-7.965 3.346-10.254 6.537zM782.178 1255.792c-1.815 2.306-1.15 6.845 2.948 6.3 5.838-1.106 11.353-4.068 15.025-8.147 2.925-3.574-1.256-9.807-6.413-7.876-4.826 2.048-8.77 5.811-11.56 9.723zM774.098 1246.117c-1.847 2.36 1.191 5.501 4.312 4.244 6.393-3.082 13.675-5.976 17.686-11.534 2.512-3.24 1.412-8.936-3.538-9.622-5.069-.206-7.706 4.581-10.58 7.446-2.663 3.128-5.556 6.142-7.88 9.466zM778.113 1206.127c-4.293 11.087-8.36 22.29-13.144 33.257-1.234 2.961 3.75 4.97 5.69 2.362 6.14-6.773 14.225-12.783 17.369-21.172 1.866-5.449-.92-11.073-4.456-15.412-1.595-1.433-4.609-.932-5.458.965zM695.524 1275.863c-1.543 3.625.48 7.43 1.54 10.924 3.957 10.082 8.769 19.883 12.875 29.915 1.867 3.818 3.151 8 6.076 11.33 2.29 2.028 6.202.237 6.69-2.312 1.25-5.224-.572-10.512-1.669-15.616-2.62-9.119-4.743-18.473-9.293-27.047-2.368-4.172-6.445-7.96-11.796-9.138-1.765-.24-3.632.53-4.423 1.944z" fill="#d7d2e6" color="#000"/><path d="M1374.9 1805.9c-12.039 1.821-15.165 16.691-12.329 26.741 3.398 13.918 11.845 27.793 24.794 34.528 16.195 4.89 33.585 2.537 50.268 4.408 14.581 1.792 29.645 2.47 43.583-3.008 19.825-5.083 35.568-18.862 53.528-27.992 6.587-4.283 14.357-7.185 19.865-12.786 2.868-6.415-5.795-7.346-10.038-7.119-52.292-4.886-104.51-11.178-157-13.61-4.23-.344-8.374-1.377-12.67-1.162z" fill="#fff" color="#000"/><path d="M1379.3 1878.5c-5.703 14.273-12.456 29.031-19.877 42.827-8.939 24.014-21.681 47.036-25.17 72.778-4.279 14.169-19.071 20.538-29.901 29.026-16.763 11.207-35.511 19.45-50.63 33.097-28.859 24.535-55.269 72.623-65.162 109.56-.948 6.313 9.58-10.108 12.67-13.319 15.522-10.736 31.519-20.792 47.301-31.113 9.266-6.344 18.18-16.063 27.629-20.525-2.756 33.827-12.919 64.395-15.573 98.324-.594 8.127-.45 21.373 5.806 26.809 7.85-1.495 12.596-12.731 17.076-18.681 16.362-27.155 22.593-58.946 36.2-87.293 2.35-3.772 5.682 2.26 6.626 4.61 5.561 15.784 9.394 32.49 18.237 47.097 3.792 5.606 5.634 23.232 10.792 27.697 7.74-.234 4.628-21.225 5.898-26.393 1.89-42.843 4.514-86.204-1.936-128.76-1.813-8.905-6.377-17.102-6.045-26.468-1.083-16.754-.116-34.17 8.456-48.94 9.476-19.49 18.21-39.583 31.448-56.825 4.525-7.575 10.138-14.79 13.134-23.126-.64-7.326-10.597-3.146-15.3-6.215-4.277-.923-6.8-7.693-11.68-4.167z" fill="#ff7f2a" color="#000"/></svg>