<svg xmlns="http://www.w3.org/2000/svg" viewBox="0 0 681.22 448.57"><g transform="matrix(-2.3627 0 0 2.3627 1080.905 -1268.387)"><rect rx="12.122" ry="10.102" height="70.711" width="213.14" y="536.84" x="243.4" fill="#00ff1b"/><path fill="#fff" d="M293.91 572.19c0 8.926-7.236 16.162-16.162 16.162-8.926 0-16.162-7.236-16.162-16.162 0-8.926 7.236-16.162 16.162-16.162 8.926 0 16.162 7.236 16.162 16.162z"/><path fill="#00ff1b" d="M287.854 572.186c0 5.58-4.523 10.101-10.101 10.101-5.58 0-10.102-4.522-10.102-10.1 0-5.58 4.523-10.102 10.101-10.102 5.58 0 10.102 4.523 10.102 10.101z"/><path stroke-linejoin="round" d="M353.2 551.3h88.571M353.2 570.45h88.571M353.2 589.6h88.571" stroke="#fff" stroke-linecap="round" stroke-width="5" fill="#fff"/></g><g transform="matrix(-2.3627 0 0 2.3627 1081.756 -1270.074)"><rect rx="12.122" ry="10.102" height="70.711" width="213.14" y="577.31" x="206.97" fill="#0096ff"/><path fill="#fff" d="M257.48 612.66c0 8.926-7.236 16.162-16.162 16.162-8.926 0-16.162-7.236-16.162-16.162 0-8.926 7.236-16.162 16.162-16.162 8.926 0 16.162 7.236 16.162 16.162z"/><path fill="#0096ff" d="M251.424 612.666c0 5.58-4.523 10.101-10.102 10.101-5.578 0-10.1-4.522-10.1-10.1 0-5.58 4.522-10.102 10.1-10.102 5.58 0 10.102 4.523 10.102 10.101z"/><path stroke-linejoin="round" d="M316.77 591.77h88.571M316.77 610.92h88.571M316.77 630.07h88.571" stroke="#fff" stroke-linecap="round" stroke-width="5" fill="#fff"/></g><g transform="matrix(-2.3627 0 0 2.3627 972.386 -221.262)"><rect rx="12.122" ry="10.102" height="70.711" width="213.14" y="173.53" x="123.24" fill="red"/><path fill="#fff" d="M173.75 208.88c0 8.927-7.236 16.162-16.162 16.162-8.926 0-16.162-7.236-16.162-16.162 0-8.926 7.236-16.162 16.162-16.162 8.926 0 16.162 7.237 16.162 16.162z"/><path fill="red" d="M167.684 208.883c0 5.578-4.523 10.1-10.102 10.1-5.578 0-10.1-4.522-10.1-10.1 0-5.58 4.522-10.102 10.1-10.102 5.58 0 10.102 4.523 10.102 10.102z"/><path stroke-linejoin="round" d="M233.04 187.99h88.571M233.04 207.14h88.571M233.04 226.29h88.571" stroke="#fff" stroke-linecap="round" stroke-width="5" fill="#fff"/></g><path stroke-linejoin="round" d="M663.44 433.372H15.61" stroke="red" stroke-linecap="round" stroke-width="30.4244879" fill="red"/><path stroke-linejoin="round" d="M429.414 440.649v-82.643" stroke="red" stroke-linecap="round" stroke-width="14.847206799999999" fill="red"/></svg>