<svg xmlns="http://www.w3.org/2000/svg" version="1.0" width="476.823" height="509.806"><g fill-rule="evenodd"><path d="M38.709 266.933c0 134.1 88.632 242.855 197.964 242.855 109.296 0 197.928-108.756 197.928-242.855 0-134.101-88.632-242.856-197.928-242.856-109.332 0-197.964 108.756-197.964 242.856h0z" stroke="#000" stroke-width=".036" stroke-miterlimit="10"/><path d="M42.921 267.365c0 131.868 87.12 238.824 194.58 238.824 107.459 0 194.58-106.956 194.58-238.824 0-131.904-87.12-238.86-194.58-238.86-107.46-.001-194.58 106.955-194.58 238.86h0z" fill="#dbaf94" stroke="#000" stroke-width=".036" stroke-miterlimit="10"/><path d="M56.097 223.481c-1.224-4.86-3.42-8.316-6.732-10.8-3.312-2.484-7.776-3.816-12.996-3.853-5.364-.107-13.608-.288-18.756 3.348-5.256 3.601-9.396 9.937-12.276 18.036-3.024 7.992-5.616 19.801-5.292 29.593.288 9.756 2.304 21.132 7.452 28.151 5.076 6.912 16.992 11.341 23.112 12.744 5.94 1.116 9.54-1.979 12.744-5.544 3.168-3.6 5.076-8.892 6.012-15.876h0l6.732-55.799h0z" stroke="#000" stroke-width=".036" stroke-miterlimit="10"/><path d="M50.085 283.385c-.576-1.836-1.296-2.593-2.16-2.412-.864.252-1.908 1.403-3.132 3.6-1.44 2.124-2.988 6.408-5.04 8.676-2.124 2.088-3.708 3.889-6.984 3.853-3.384-.18-8.388-1.98-12.492-4.572-4.14-2.736-9.216-6.372-12.024-11.052-2.952-4.752-4.5-10.404-5.076-17.101-.324-1.224-.108-4.031.504-8.424.612-4.536 1.548-12.312 3.348-18.036 1.764-5.903 3.996-12.275 6.984-16.344 2.952-4.068 6.48-6.624 10.584-7.956 3.888-1.512 9.54-.972 13.212-.72 3.528.18 6.192.828 8.424 1.943 2.124 1.08 3.78 2.521 4.824 4.32 1.044 1.62.684 4.645 1.44 5.76.684 1.044 1.512 1.332 2.628.721 1.008-.721 2.088-1.98 3.384-4.32-2.808 20.664-5.616 41.364-8.424 62.064z" fill="#dbaf94"/><path d="M45.297 235.289c-.504-1.512-3.132-4.104-5.544-5.292-2.556-1.332-6.192-2.771-9.396-1.944-3.348.792-7.236 2.7-9.864 6.984-2.664 4.284-5.004 11.808-5.508 18.288-.576 6.408.036 15.444 2.376 19.729 2.304 4.104 7.776 5.184 11.556 5.04 3.6-.288 9.072-4.464 10.584-6.265 1.368-1.872.108-4.788-1.692-4.571-1.836.18-6.228 5.075-8.892 5.796-2.844.611-5.472-.108-7.2-2.16-1.728-2.196-2.664-5.796-2.664-10.368-.072-4.68.828-12.636 2.412-17.064 1.476-4.464 4.32-7.992 6.732-9.611 2.376-1.765 5.22-1.332 7.704-.505 2.376.828 5.076 4.86 6.732 5.292 1.512.215 3.096-1.873 2.664-3.349h0zm375.48-9.72c1.188-4.824 3.384-8.388 6.731-10.836 3.276-2.521 7.597-3.744 12.96-3.816 5.328-.107 13.536-.288 18.792 3.349 5.185 3.6 9.217 9.936 12.24 18.035 2.916 7.992 5.508 19.801 5.292 29.593-.396 9.756-2.412 21.132-7.452 28.152-5.184 6.911-17.136 11.34-23.075 12.743-6.049 1.116-9.648-1.979-12.744-5.544-3.204-3.6-5.112-8.892-6.013-15.876h0l-6.731-55.8h0z" stroke="#000" stroke-width=".036" stroke-miterlimit="10"/><path d="M426.789 285.473c.54-1.836 1.26-2.592 2.16-2.412.756.252 1.8 1.404 3.132 3.6 1.404 2.124 2.952 6.408 5.04 8.676 2.052 2.089 3.601 3.889 6.984 3.853 3.275-.18 8.315-1.98 12.492-4.572 4.031-2.7 9.144-6.443 12.023-11.088 2.916-4.788 4.428-10.332 5.076-17.063.288-1.225.072-4.032-.504-8.425-.72-4.536-1.656-12.312-3.349-18.036-1.8-5.903-4.031-12.275-6.983-16.344-3.061-4.068-6.588-6.624-10.584-7.956-4.068-1.512-9.648-.972-13.248-.72-3.636.18-6.3.828-8.424 1.944-2.269 1.079-3.816 2.52-4.788 4.319-1.152 1.62-.756 4.645-1.44 5.76-.756 1.044-1.691 1.332-2.664.721-1.044-.721-2.159-1.98-3.348-4.32 2.809 20.663 5.617 41.363 8.425 62.063z" fill="#dbaf94"/><path d="M431.577 237.376c.432-1.512 3.024-4.104 5.544-5.292 2.448-1.332 6.12-2.771 9.36-1.943 3.275.792 7.164 2.699 9.863 6.983 2.521 4.284 4.969 11.809 5.545 18.288.468 6.408-.108 15.444-2.412 19.729-2.448 4.104-7.813 5.184-11.521 5.04-3.708-.288-9.18-4.464-10.584-6.265-1.404-1.871-.252-4.787 1.656-4.571 1.728.18 6.192 5.076 8.928 5.796 2.7.54 5.472-.145 7.2-2.196 1.656-2.231 2.484-5.724 2.628-10.332-.072-4.68-.864-12.636-2.376-17.064-1.548-4.571-4.392-7.92-6.732-9.647-2.483-1.8-5.327-1.26-7.703-.468-2.484.827-5.148 4.859-6.732 5.292-1.62.215-3.204-1.873-2.664-3.35h0zm-227.448-20.267c0 7.056 5.724 12.78 12.78 12.78 7.056 0 12.78-5.725 12.78-12.78 0-7.057-5.724-12.78-12.78-12.78-7.056 0-12.78 5.723-12.78 12.78h0z" stroke="#000" stroke-width=".036" stroke-miterlimit="10"/><path d="M210.573 213.76a3.495 3.495 0 003.492 3.492c1.908 0 3.456-1.584 3.456-3.492 0-1.907-1.548-3.491-3.456-3.491a3.495 3.495 0 00-3.492 3.491h0z" fill="#fff" stroke="#000" stroke-width=".036" stroke-miterlimit="10"/><path d="M192.429 183.269c3.42-1.188 10.404-2.16 15.696-2.484 5.22-.324 11.412 0 15.372.828 3.924.792 7.164 2.592 7.632 3.852.252 1.188-2.664 2.916-5.976 3.097-3.528.036-9.54-2.484-14.292-2.557-4.896-.107-10.296 1.261-13.968 2.017-3.708.72-6.12 2.304-7.668 2.268-1.548-.252-2.34-2.088-1.692-3.275.468-1.263 1.405-2.738 4.896-3.746h0zm84.204 33.84c0 7.056-5.724 12.78-12.779 12.78-7.057 0-12.78-5.725-12.78-12.78 0-7.057 5.724-12.78 12.78-12.78 7.055 0 12.779 5.723 12.779 12.78h0z" stroke="#000" stroke-width=".036" stroke-miterlimit="10"/><path d="M266.481 213.508c0 1.908-1.584 3.492-3.492 3.492s-3.492-1.584-3.492-3.492c0-1.907 1.584-3.456 3.492-3.456s3.492 1.549 3.492 3.456h0z" fill="#fff" stroke="#000" stroke-width=".036" stroke-miterlimit="10"/><path d="M290.241 185.537c-3.204-1.584-9.324-3.6-14.04-4.536-4.824-1.044-10.476-1.512-14.04-1.26-3.672.288-6.876 1.476-7.271 2.736-.36 1.115 2.016 3.204 5.184 3.888 3.132.432 8.784-1.116 13.212-.612 4.248.469 9.252 2.7 12.528 3.924 3.168 1.116 5.292 3.168 6.768 3.24 1.44-.036 2.088-1.728 1.8-2.987-.361-1.262-1.225-2.953-4.141-4.393h0zm-216.432-1.945c1.656-4.067 7.848-13.716 12.204-19.907 4.32-6.156 10.908-15.048 13.392-16.956 2.304-2.017 2.556 1.296.612 5.076-2.088 3.743-8.532 10.871-12.528 16.92-4.068 5.976-9.252 15.659-11.52 18.359-2.412 2.449-3.78.361-2.16-3.492h0zm-3.06 7.777c-.936 1.08-3.456 5.4-3.384 6.84.036 1.296 2.52 1.584 3.564.721.936-1.009 1.836-5.509 1.872-6.696-.072-1.405-1.224-1.837-2.052-.865h0zm36.216-53.496c-1.188.648-4.752 4.5-5.004 5.725-.288 1.224 1.944 2.231 3.204 1.619 1.152-.827 3.168-4.752 3.564-5.939.216-1.261-.648-2.197-1.764-1.405h0zm279 28.295c1.872 2.521 5.076 9.648 7.093 14.58 1.764 4.788 4.104 11.988 4.104 14.112-.072 1.979-2.771.936-4.212-1.62-1.584-2.628-2.808-9.108-4.644-13.608-1.872-4.68-6.084-11.304-6.408-13.607-.504-2.233 2.195-2.412 4.067.143h0zm-3.924-4.751c-.252-1.044-1.979-4.032-2.952-4.536-1.008-.468-3.06.757-2.844 1.729.108.864 2.809 3.096 3.816 3.636.972.466 2.052-.038 1.98-.829h0zm16.92 41.112c0-1.116-.216-4.284-1.044-5.04-.863-.612-3.132.108-3.348 1.188-.252.864 1.404 3.601 2.196 4.32.648.648 1.98.36 2.196-.468h0zm-163.98 216.72c-9.648-1.008-13.5-.72-24.516-4.067-11.052-3.42-28.872-9.181-41.112-16.057-12.204-6.947-21.852-14.508-31.572-25.056-9.684-10.62-19.872-25.092-26.136-37.836-6.264-12.78-9.9-25.271-11.16-38.124h0c-.18-2.628.54-5.04 2.16-7.632 1.584-2.628 6.912-5.868 7.38-7.632.324-1.765-2.484-4.429-4.932-2.988-2.52 1.44-7.452 5.904-9.792 11.16-2.484 5.076-3.888 14.436-4.356 19.332-.468 4.824 1.044 8.136 1.908 9.54.828 1.332 2.34.828 2.988-1.656.504-2.556.648-7.092.288-13.608h0c2.412 12.673 6.768 25.236 13.608 38.124 6.768 12.853 15.156 27.54 26.676 38.664 11.556 10.98 28.548 20.484 41.4 26.964 12.636 6.337 24.588 8.568 33.768 11.16 9 2.484 13.248 3.061 20.124 3.816 6.84.612 13.788.612 20.7 0 6.876-.756 11.052-1.332 20.16-3.816 9.072-2.592 21.023-4.823 33.768-11.16 12.637-6.479 29.809-15.983 41.364-26.964 11.376-11.124 19.908-25.812 26.712-38.664 6.768-12.888 11.16-25.451 13.608-38.124h0c-.36 6.517-.324 11.053.252 13.608.54 2.484 2.088 2.988 2.987 1.656.792-1.404 2.269-4.716 1.908-9.54-.54-4.896-1.943-14.256-4.355-19.332-2.412-5.256-7.345-9.72-9.792-11.16-2.557-1.44-5.292 1.224-4.896 2.988.433 1.764 5.616 5.004 7.344 7.632 1.513 2.592 2.376 5.004 2.196 7.632h0c-1.26 12.853-4.932 25.344-11.16 38.124-6.3 12.744-16.452 27.216-26.136 37.836-9.72 10.548-19.404 18.108-31.608 25.056-12.239 6.876-30.06 12.637-41.111 16.057-11.017 3.348-14.832 3.06-24.517 4.067-9.648 1.043-4.464 1.043-14.148 0h0zm-6.48 82.584c-4.356-.287-15.696-2.088-23.04-3.852-7.38-1.836-18-4.608-20.736-6.084-2.7-1.548.216-2.88 4.464-2.448 4.176.396 13.284 3.78 20.376 5.292 6.984 1.44 18.036 2.557 21.348 3.78 3.06 1.187 1.836 3.312-2.412 3.312h0zm8.352-.072c1.26.396 6.336 1.008 7.596.576 1.044-.505.54-3.169-.684-3.564-1.404-.54-5.688.216-6.876.756-1.224.504-1.332 1.62-.036 2.232h0zm-63.18-13.572c1.152.792 5.868 2.664 7.2 2.556 1.224-.359 1.368-2.771.288-3.636-1.188-.864-5.616-1.26-6.876-1.044-1.296.108-1.728 1.332-.612 2.124h0z" stroke="#000" stroke-width=".036" stroke-miterlimit="10"/><path d="M119.673 92.657c1.8 7.704 1.404 14.796-1.332 21.672-2.808 6.84-9.936 13.032-15.012 19.152-5.148 5.939-8.892 7.92-15.408 16.92-6.66 9.072-18.108 27.324-23.796 37.116-5.688 9.647-6.156 15.588-10.152 20.592-4.248 4.824-10.872 9.288-14.328 8.532-3.456-.937-4.968-1.836-5.904-13.393-.9-11.771-3.996-37.908.288-56.196 4.176-18.432 17.316-40.859 24.552-52.991C65.673 82 70.641 78.689 76.689 74.945c6.048-3.744 11.772-5.076 17.748-3.6-4.824-7.164-3.276-14.725 4.5-23.364 7.812-8.712 22.644-19.944 42.156-27.864 19.656-7.956 47.016-16.632 74.304-19.224 27.072-2.664 63.647 1.26 87.084 3.563 23.292 2.269 36.036 4.572 51.983 9.973 15.805 5.327 30.889 12.6 42.48 21.672 11.304 9 18.252 19.188 25.848 31.968 7.597 12.672 15.948 29.988 19.908 43.74 3.888 13.5 3.204 24.3 3.636 37.691.396 13.428 1.477 30.168-1.332 42.444-2.951 12.204-11.376 26.388-16.128 30.204-4.823 3.672-5.616 4.212-12.672-8.244-7.271-12.744-16.992-34.704-29.988-66.996-33.84-.036-63.252-1.44-89.747-4.068-26.496-2.735-45.288-7.128-67.896-12.06-22.68-5.112-48.528-11.304-66.852-17.748-18.288-6.444-32.112-13.103-42.048-20.375z"/><path d="M106.605 83.117c-3.204-2.52-7.812-5.652-12.276-6.479-4.464-1.08-9.108-2.448-14.616 1.044-5.832 3.6-12.816 11.088-19.008 20.376-6.228 9.18-13.5 23.436-17.532 34.596-4.104 11.088-5.22 20.916-6.408 31.716-1.224 10.692-1.224 24.516-.684 32.292.432 7.668 1.008 12.78 3.672 13.788 2.52.9 6.876-1.764 11.7-8.136 4.788-6.588 11.52-20.916 16.992-30.204 5.292-9.216 8.532-16.488 15.12-24.876 6.516-8.496 18.396-18.504 23.976-25.596 5.328-7.236 7.884-12.061 8.784-17.101.828-5.076-1.656-9.324-3.276-12.888-1.728-3.672-3.276-6.048-6.444-8.532h0z" fill="#ffba35" stroke="#000" stroke-width=".036" stroke-miterlimit="10"/><path d="M94.401 95.681c-1.656 5.184-3.708 13.176-7.956 20.628-4.32 7.344-11.844 15.084-17.316 23.075-5.58 7.921-12.06 14.904-15.552 24.013-3.564 9-5.292 24.804-5.472 29.52-.288 4.572 2.772 2.196 4.032-2.124 1.188-4.607.252-16.775 3.168-24.264 2.808-7.452 9.36-14.04 13.68-20.052 4.248-5.94 7.596-10.009 11.844-15.696 4.212-5.976 9.864-12.42 13.212-19.188 3.132-6.804 5.508-16.235 5.76-20.663.216-4.429-3.492-6.229-4.32-5.4-.936.827.324 4.859-1.08 10.151h0z" stroke="#000" stroke-width=".036" stroke-miterlimit="10"/><path d="M153.441 105.761c-5.724-2.16-11.412-4.536-17.064-7.416-5.832-2.916-11.52-5.904-17.064-9.648-5.616-3.888-12.276-8.748-16.092-13.176-3.924-4.5-6.984-8.748-6.804-13.429.108-4.752.72-8.783 7.812-14.867 7.056-6.265 20.52-15.444 34.56-21.853 14.004-6.408 31.5-12.888 48.996-16.235 17.496-3.492 37.152-3.853 54.937-4.141 17.748-.359 34.128.9 50.399 2.376 16.092 1.368 30.924 2.16 45.864 6.265 15.012 4.104 30.96 11.411 42.984 18.18 11.808 6.696 20.159 13.68 27.432 21.78 7.164 7.991 11.268 18 15.372 25.991 3.996 7.849 5.832 13.32 8.855 20.988 2.952 7.596 6.984 14.652 8.784 24.516 1.656 9.828 1.512 23.364 1.512 34.093-.071 10.728.108 20.376-1.979 29.628-2.269 9.107-7.92 19.979-11.124 24.983-3.204 4.788-4.968 7.309-8.064 4.248-3.275-3.132-5.327-10.403-11.016-22.788-5.832-12.6-13.355-29.556-23.256-51.84h0c-22.14.396-45.252-.684-70.704-3.24-25.56-2.663-58.428-8.243-80.712-12.312-22.176-4.212-37.548-8.388-51.516-12.132-14.076-3.707-24.552-6.983-32.112-9.971h0z" fill="#ffba35" stroke="#000" stroke-width=".036" stroke-miterlimit="10"/><path d="M139.221 46.613c13.032-2.052 51.408-8.316 80.28-9.36 28.764-1.188 64.44.756 91.08 2.772 26.604 2.124 54 6.552 67.032 9.396 12.636 2.628 10.044 5.904 9.18 6.372-.863.288-3.384-2.34-14.508-4.284-11.448-2.124-29.88-5.724-52.956-7.739-23.328-2.053-60.084-4.645-84.852-4.429-24.696.072-46.62 3.601-62.028 5.328-15.408 1.656-24.228 4.284-29.772 4.681-5.616.251-16.308-.758-3.456-2.737h0zm-3.744 9.683c14.364 3.168 52.272 14.185 80.532 20.269 28.26 5.868 64.08 12.096 87.732 15.084 23.508 2.916 37.152 3.132 52.596 2.448 15.265-.792 31.393-5.616 39.097-6.696 7.596-1.08 7.632-.864 6.624.107-1.116.9-4.788 3.133-12.96 5.04-8.389 1.801-20.017 5.58-36.396 5.904-16.488.145-40.104-1.691-61.416-4.392-21.42-2.7-41.364-6.372-65.664-11.557-24.444-5.363-63.216-15.659-79.236-19.8-15.912-4.212-14.004-3.672-15.804-4.752-1.909-1.151-9.397-4.75 4.895-1.655h0zm-9.18 16.164c13.824 4.104 54.108 20.7 81.684 28.261 27.504 7.38 57.744 12.672 81.972 15.876 24.084 2.987 43.596 2.556 61.452 2.592 17.712-.036 36.36-2.844 44.28-2.592 7.775.071 8.676 2.411 2.124 3.563-6.876 1.008-23.688 3.204-42.084 3.132-18.576-.107-44.496-1.044-67.608-3.636-23.184-2.844-47.052-7.02-69.66-12.528-22.572-5.615-49.14-15.228-64.584-20.376-15.516-5.111-23.076-8.027-27.684-10.296-4.68-2.483-13.572-8.027.108-3.996h0zm291.708 97.705c1.944 3.853 6.156 12.564 7.633 16.956 1.296 4.284 1.151 8.353.684 8.856-.504.359-1.224-1.729-3.42-6.265-2.269-4.68-6.48-13.752-10.152-20.987-3.924-7.272-10.368-17.46-12.384-21.96-1.979-4.5-.36-5.977.972-4.824 1.404 1.08 4.572 7.452 6.876 11.196 2.16 3.707 4.141 7.739 5.94 10.728 1.475 2.772 2.015 2.412 3.851 6.3h0zm-199.656-31.716c-4.356-.504-15.408-3.42-22.608-5.688-7.308-2.341-17.568-6.085-20.232-7.74-2.628-1.729.504-2.916 4.68-2.053 4.068.721 12.96 4.824 19.872 6.877 6.804 2.088 17.82 3.96 20.988 5.472 2.916 1.332 1.512 3.527-2.7 3.132h0zm8.352.612c1.26.468 6.228 1.548 7.524 1.151 1.152-.468.792-3.06-.396-3.6-1.26-.54-5.832-.324-6.912.216-1.332.361-1.404 1.621-.216 2.233h0zm-61.884-18.612c1.044.864 5.58 3.06 6.948 3.096 1.296-.18 1.44-2.664.576-3.563-1.08-.9-5.544-1.765-6.732-1.62-1.296.035-1.836 1.151-.792 2.087h0zM71.793 292.241c2.484-3.6 10.332-11.88 15.912-17.063 5.436-5.221 13.68-12.528 16.524-14.004 2.628-1.513 2.16 1.8-.432 5.075-2.808 3.168-10.476 9.072-15.624 14.112-5.22 4.968-12.132 13.645-14.904 15.732-2.844 1.944-3.852-.36-1.476-3.852h0zm316.62-26.28c3.168 2.844 10.512 11.699 15.084 17.819 4.572 5.977 10.692 15.084 11.952 18.036 1.008 2.772-2.052 2.016-5.004-1.008-2.952-3.204-7.848-11.484-12.168-17.208-4.428-5.688-12.24-13.788-13.86-16.668-1.62-3.096.685-3.743 3.996-.971h0z" stroke="#000" stroke-width=".036" stroke-miterlimit="10"/></g></svg>