<svg xmlns="http://www.w3.org/2000/svg" xmlns:xlink="http://www.w3.org/1999/xlink" viewBox="0 0 569.09 415.03"><defs><linearGradient id="prefix__a"><stop offset="0" stop-color="#816040"/><stop offset=".071" stop-color="#75573a"/><stop offset=".143" stop-color="#7e5f40"/><stop offset=".214" stop-color="#8c6a47"/><stop offset=".286" stop-color="#946f4c"/><stop offset=".357" stop-color="#916d4a"/><stop offset=".429" stop-color="#896543"/><stop offset=".5" stop-color="#825e3b"/><stop offset=".571" stop-color="#7b5634"/><stop offset=".643" stop-color="#725131"/><stop offset=".714" stop-color="#674a2f"/><stop offset=".786" stop-color="#5e4630"/><stop offset=".857" stop-color="#5d4632"/><stop offset=".929" stop-color="#5b4633"/><stop offset="1" stop-color="#624b38"/></linearGradient><linearGradient id="prefix__c"><stop offset="0" stop-color="#ccc"/><stop offset="1" stop-color="#ababab"/></linearGradient><linearGradient id="prefix__d"><stop offset="0" stop-color="#939f9a"/><stop offset=".071" stop-color="#b1beb9"/><stop offset=".143" stop-color="#c2cecc"/><stop offset=".214" stop-color="#d4dfe1"/><stop offset=".286" stop-color="#d7e1e2"/><stop offset=".357" stop-color="#dae2e1"/><stop offset=".429" stop-color="#dee6e3"/><stop offset=".5" stop-color="#dde4e2"/><stop offset=".571" stop-color="#dfe6e4"/><stop offset=".643" stop-color="#e0e9e6"/><stop offset=".714" stop-color="#e4ebe9"/><stop offset=".786" stop-color="#dae3e1"/><stop offset=".857" stop-color="#becac8"/><stop offset=".929" stop-color="#a8b6b6"/><stop offset="1" stop-color="#b3b9b8"/></linearGradient><linearGradient id="prefix__b"><stop offset="0" stop-color="#74563a"/><stop offset=".071" stop-color="#694e34"/><stop offset=".143" stop-color="#71563a"/><stop offset=".214" stop-color="#7e5f40"/><stop offset=".286" stop-color="#856444"/><stop offset=".357" stop-color="#836243"/><stop offset=".429" stop-color="#7b5b3c"/><stop offset=".5" stop-color="#755535"/><stop offset=".571" stop-color="#6f4d2f"/><stop offset=".643" stop-color="#67492c"/><stop offset=".714" stop-color="#5d432a"/><stop offset=".786" stop-color="#553f2b"/><stop offset=".857" stop-color="#543f2d"/><stop offset=".929" stop-color="#523f2e"/><stop offset="1" stop-color="#584432"/></linearGradient><linearGradient id="prefix__t" y2="675.83" xlink:href="#prefix__a" gradientUnits="userSpaceOnUse" x2="-106.03" gradientTransform="matrix(.85 0 0 1.0004 71.67 -156.06)" y1="675.83" x1="-206.03"/><linearGradient id="prefix__v" y2="534.44" xlink:href="#prefix__b" gradientUnits="userSpaceOnUse" x2="183.69" y1="534.44" x1="67.138"/><linearGradient id="prefix__x" y2="264.54" xlink:href="#prefix__c" gradientUnits="userSpaceOnUse" x2="100.77" gradientTransform="translate(61.5 169)" y1="248.54" x1="100.77"/><linearGradient id="prefix__y" y2="264.54" xlink:href="#prefix__c" gradientUnits="userSpaceOnUse" x2="100.77" gradientTransform="translate(61.5 200.5)" y1="248.54" x1="100.77"/><linearGradient id="prefix__z" y2="264.54" xlink:href="#prefix__c" gradientUnits="userSpaceOnUse" x2="100.77" gradientTransform="translate(61.5 232)" y1="248.54" x1="100.77"/><linearGradient id="prefix__A" y2="210.42" xlink:href="#prefix__d" gradientUnits="userSpaceOnUse" x2="236.39" gradientTransform="translate(10.5 193.5)" y1="210.42" x1="121.39"/><linearGradient id="prefix__B" y2="540.08" xlink:href="#prefix__a" gradientUnits="userSpaceOnUse" x2="-248.77" gradientTransform="translate(228.89 -17.167)" y1="540.08" x1="-333.77"/><linearGradient id="prefix__f" y2="549.92" gradientUnits="userSpaceOnUse" x2="-397.86" y1="485.35" x1="-407.49"><stop offset="0" stop-color="#828282"/><stop offset="1" stop-color="#828282" stop-opacity="0"/></linearGradient><linearGradient id="prefix__g" y2="534.75" gradientUnits="userSpaceOnUse" x2="-392.41" y1="482.39" x1="-406.23"><stop offset="0" stop-color="#f30000"/><stop offset="1" stop-color="#f30000" stop-opacity=".149"/></linearGradient><linearGradient id="prefix__i" y2="521.43" gradientUnits="userSpaceOnUse" x2="-405.53" y1="482.87" x1="-398.47"><stop offset="0" stop-color="#45dfcf"/><stop offset="1" stop-color="#45dfcf" stop-opacity="0"/></linearGradient><linearGradient id="prefix__k" y2="522.39" gradientUnits="userSpaceOnUse" x2="-402.14" y1="481.72" x1="-399.73"><stop offset="0" stop-color="#00f300"/><stop offset="1" stop-color="#00f300" stop-opacity="0"/></linearGradient><linearGradient id="prefix__m" y2="524.79" gradientUnits="userSpaceOnUse" x2="-401.86" y1="485.02" x1="-405.5"><stop offset="0" stop-color="#f3f300"/><stop offset="1" stop-color="#f3f300" stop-opacity="0"/></linearGradient><linearGradient id="prefix__p" y2="523.44" gradientUnits="userSpaceOnUse" x2="-405.68" y1="481" x1="-405.2"><stop offset="0" stop-color="#f3a500"/><stop offset="1" stop-color="#f37100" stop-opacity="0"/></linearGradient><linearGradient id="prefix__o" y2="817.64" gradientUnits="userSpaceOnUse" x2="-574.73" y1="824.83" x1="-576.25"><stop offset="0"/><stop offset="1" stop-opacity="0"/></linearGradient><radialGradient id="prefix__h" gradientUnits="userSpaceOnUse" cy="704.96" cx="440.64" gradientTransform="matrix(.39446 -1.3088 2.3695 .61649 -1465.6 573.74)" r="21.539"><stop offset="0" stop-color="#31a620"/><stop offset="1" stop-color="#a20000" stop-opacity="0"/></radialGradient><radialGradient id="prefix__j" gradientUnits="userSpaceOnUse" cy="611.47" cx="817.61" gradientTransform="matrix(.33976 -.58115 .69741 .40773 133.22 778.38)" r="104.2"><stop offset="0" stop-color="#4530cf" stop-opacity=".923"/><stop offset="1" stop-color="#4530cf" stop-opacity="0"/></radialGradient><radialGradient id="prefix__l" gradientUnits="userSpaceOnUse" cy="557.09" cx="819.09" gradientTransform="matrix(.43519 -.63885 .6228 .42427 122.68 799.24)" r="100.75"><stop offset="0" stop-color="#009200"/><stop offset="1" stop-color="#009200" stop-opacity="0"/></radialGradient><radialGradient id="prefix__n" gradientUnits="userSpaceOnUse" cy="616.99" cx="865.46" gradientTransform="matrix(.51509 -.85713 .59683 .35867 61.55 1068)" r="95.654"><stop offset="0" stop-color="#b2a200"/><stop offset="1" stop-color="#b2a200" stop-opacity="0"/></radialGradient><radialGradient id="prefix__q" gradientUnits="userSpaceOnUse" cy="635.48" cx="933.26" gradientTransform="matrix(.36855 -.92961 .71077 .28179 149.83 1259.5)" r="104.2"><stop offset="0" stop-color="#b25100"/><stop offset="1" stop-color="#b25100" stop-opacity="0"/></radialGradient><radialGradient id="prefix__r" gradientUnits="userSpaceOnUse" cy="649.56" cx="1019" gradientTransform="matrix(.489 -.87228 .74038 .41506 55.739 1207.3)" r="104.2"><stop offset="0" stop-color="#aaa"/><stop offset="1" stop-color="#aaa" stop-opacity="0"/></radialGradient><filter id="prefix__e" height="1" width="1" color-interpolation-filters="sRGB" y="0" x="0"><feMorphology operator="dilate" radius="19.622641509433965 1.0769230769230769" result="result12"/><feTurbulence baseFrequency="0 0.064754098360655751" seed="25" result="result1"/><feComposite operator="in" in2="result1" in="result12"/><feColorMatrix values="1 0 0 0 0.1 0 1 0 0 0.1 0 0 1 0 0.1 0 0 0 1 0" result="result5"/><feColorMatrix values="1.5 0 0 0 0 0 1.5 0 0 0 0 0 1.5 0 0 0 0 0 1 0" result="result8"/><feMerge result="result6"><feMergeNode in="result8"/></feMerge><feTurbulence baseFrequency="0 0.0918032786885246" result="result9"/><feComposite operator="in" in2="result9" in="result12"/><feColorMatrix values="1 0 0 0 0 0 1 0 0 0 0 0 1 0 0 0 0 0 1 -0.1"/><feColorMatrix values="0.8 0 0 0 0 0 0.8 0 0 0 0 0 0.8 0 0 0 0 0 1.5 0" result="result5"/><feMerge result="result9"><feMergeNode in="result5"/><feMergeNode in="result6"/></feMerge><feTurbulence numOctaves="10" type="fractalNoise" baseFrequency="0.0040983606557377051 0.017213114754098362" result="result11"/><feDisplacementMap scale="87.266" in2="result11" result="result10" in="result9"/><feMerge result="result7"><feMergeNode in="SourceGraphic"/><feMergeNode in="result10"/></feMerge><feComposite operator="in" result="result13" in2="SourceAlpha"/></filter><filter id="prefix__s" height="1" width="1" color-interpolation-filters="sRGB" y="0" x="0"><feMorphology operator="dilate" radius="19.600000000000001 1.1000000000000001" result="result12"/><feTurbulence baseFrequency="0 0.05464895635673625" seed="25" result="result1"/><feComposite operator="in" in2="result1" in="result12"/><feColorMatrix values="1 0 0 0 0.1 0 1 0 0 0.1 0 0 1 0 0.1 0 0 0 1 0" result="result5"/><feColorMatrix values="1.5 0 0 0 0 0 1.5 0 0 0 0 0 1.5 0 0 0 0 0 1 0" result="result8"/><feMerge result="result6"><feMergeNode in="result8"/></feMerge><feTurbulence baseFrequency="0 0.082732447817836813" result="result9"/><feComposite operator="in" in2="result9" in="result12"/><feColorMatrix values="1 0 0 0 0 0 1 0 0 0 0 0 1 0 0 0 0 0 1 -0.1"/><feColorMatrix values="0.8 0 0 0 0 0 0.8 0 0 0 0 0 0.8 0 0 0 0 0 1.5 0" result="result5"/><feMerge result="result9"><feMergeNode in="result5"/><feMergeNode in="result6"/></feMerge><feTurbulence numOctaves="10" type="fractalNoise" baseFrequency="0.0030000000000000001 0.017000000000000001" result="result11"/><feDisplacementMap scale="36.036" in2="result11" result="result10" in="result9"/><feMerge result="result7"><feMergeNode in="SourceGraphic"/><feMergeNode in="result10"/></feMerge><feComposite operator="in" result="result13" in2="SourceAlpha"/></filter><filter id="prefix__w" height="1" width="1" color-interpolation-filters="sRGB" y="0" x="0"><feColorMatrix result="result19" values="0.5 0 0 0 0.3 0 0.5 0 0 0.3 0 0 0.5 0 0.3 0 0 0 1 0" in="SourceGraphic"/><feTurbulence baseFrequency="0.001 0.40000000000000002" seed="12" result="result1" numOctaves="10"/><feMerge result="result18"/><feTurbulence baseFrequency="0.001 0.40000000000000002" seed="152" result="result1" numOctaves="10"/><feMerge result="result20"><feMergeNode in="result1"/><feMergeNode in="result18"/></feMerge><feComposite operator="in" result="result21" in2="result20" in="SourceGraphic"/><feMerge result="result7"><feMergeNode in="result19"/><feMergeNode in="result21"/></feMerge><feTurbulence baseFrequency="0.001 0.40000000000000002" seed="15" result="result1" numOctaves="10"/><feComposite operator="in" result="result15" in2="result1" in="SourceGraphic"/><feColorMatrix values="0.8 0 0 0 0 0 0.8 0 0 0 0 0 0.8 0 0 0 0 0 1 0" result="result5"/><feMerge result="result13"><feMergeNode in="result7"/><feMergeNode in="result5"/></feMerge><feComposite operator="in" result="result16" in2="SourceAlpha"/></filter><filter id="prefix__u" height="1" width="1" color-interpolation-filters="sRGB" y="0" x="0"><feTurbulence baseFrequency="0.39455782312925169 0.0090721649484536079" seed="25" result="result1" numOctaves="10"/><feComposite operator="in" in2="result1" in="SourceGraphic"/><feColorMatrix values="1 0 0 0 0.1 0 1 0 0 0.1 0 0 1 0 0.1 0 0 0 0.5 0" result="result5"/><feColorMatrix values="9 0 0 0 0 0 9 0 0 0 0 0 9 0 0 0 0 0 1 0" result="result8"/><feMerge result="result6"><feMergeNode in="SourceGraphic"/><feMergeNode in="result8"/></feMerge><feTurbulence numOctaves="10" type="fractalNoise" result="result11" baseFrequency="0.39505154639175261 0.076701030927835062"/><feDisplacementMap scale="6.4" in2="result11" result="result10" in="result6"/><feComposite in="result10" in2="SourceGraphic" k3=".7" k2=".5" operator="arithmetic"/></filter></defs><path d="M201.061 115.49c-13.379 0-24.219 12.628-24.219 28.219 0 7.736 2.677 14.747 7 19.844-1.82-3.962-2.844-8.502-2.844-13.312 0-15.591 10.808-28.219 24.188-28.219 6.742 0 12.854 3.23 17.25 8.406-4.086-8.88-12.124-14.938-21.375-14.938zm341.12 12.719c22.244 37.546 29.3 87.715 16.25 131.16-12.522 40.623-39.005 73.41-69.625 96.125-63.666 46.564-142.05 62.276-215.59 47.813-46.304-9.168-92.091-28.999-128.75-64.406-8.634-8.99-17.69-17.875-25-28.438 7.823 13.557 18.802 24.187 29.156 34.969 36.659 35.407 82.446 55.238 128.75 64.406 73.548 14.463 151.9-1.248 215.56-47.812 30.62-22.715 57.103-55.502 69.625-96.125 13.825-46.021 5.084-99.575-20.375-137.69zm-390.78 44.78c-12.584-.102-25.341 22.886-37.969 17.719-2.203-.902-4.16-2.448-5.875-4.406 2.328 5.046 5.742 9.182 10.031 10.938 13.934 5.702 28.001-22.9 41.844-16.906 1.007.436 1.942 1.078 2.781 1.875-1.497-3.812-3.82-7.07-6.906-8.406a9.913 9.913 0 00-3.906-.813z" fill="#611010"/><path d="M464.27 618.4c-2.292-.01-4.602-.004-6.892.031-66.586.775-133.55 28.145-183.89 80.25-16.567 17.435-30.284 40.56-33.12 67.094.545 10.248 5.52 21.656 13.463 24.906 13.934 5.702 28.02-22.899 41.863-16.906 5.574 2.413 8.587 11.083 8.93 18 .6 12.112-5.847 23.988-12.444 33.375-5.322 7.575-13.807 11.145-20.677 16.781-7.542 6.189-17.442 8.147-22.554 18.688-4.272 12.493-1.065 26.704 4.023 38.156 7.85 16.084 20.26 27.988 31.887 40.094 36.659 35.407 82.449 55.238 128.75 64.406 73.548 14.463 151.9-1.248 215.56-47.813 30.62-22.715 57.124-55.502 69.646-96.125 14.835-49.38 3.704-107.47-26.201-145.81-28.264-37.37-66.722-61.962-106.68-77.312-32.81-12.318-67.29-17.656-101.67-17.812zm-122.83 97.062c13.379 0 24.243 12.628 24.243 28.219S354.819 771.9 341.44 771.9s-24.217-12.628-24.217-28.219 10.837-28.219 24.217-28.219z" stroke-linejoin="round" filter="url(#prefix__e)" stroke="#300000" stroke-linecap="square" stroke-width="2" fill="#f3e3d3" transform="translate(-138.789 -597.29)"/><path d="M219.145 230.847c-6.863.932-15.117 4.873-21.418 10.575-3.79 4.388-3.946 8.654-4.114 12.389-.064 6.013-2.627 13.43-8.8 20.21-.852 1.335 1.892.707.77 2.122-1.367 1.556-4.17 2.514-4.742 4.35-.187 1.593 3.35.228 2.71 2.13-1.6 2.317-.781 4.271 1.156 4.673 8.262 4.354 19.443 5.817 32.093 3.918 3.756-.925 7.67-2.125 11.01-2.032 3.932-.34 8.405-2.364 12.654-4.034 6.97-2.982 14.14-6.488 20.567-11.473 7.04-5.28 13.027-12.133 15.59-18.653 2.01-4.88 2.06-9.446-.095-12.476-.41-2.153.22-5.024-1.728-6.212-2.088-2.66-4.526-5.606-9.653-5.01-6.436.511-13.856 5.417-20.527 6.734-4.467 1.086-8.331.673-11.122-.806-4.64-2.173-7.453-6.534-14.073-6.437l-.276.033z"/><path d="M-393.97 485.91c-16.836.41-28.766 18.121-27.155 34.018-.245 6.399 6.397 10.827 12.347 9.507 11.474-1.124 24.199-1.517 33.589-9.025 6.357-7.715 3.85-19.64-2.064-26.898-4.02-4.925-10.249-8.245-16.717-7.602z" transform="matrix(.35983 -.18167 .11442 .19842 296.571 72.534)" fill="url(#prefix__f)"/><path d="M300.912 59.309c-5.484-.139-10.963.725-16.075 2.384-2.978.855-5.97 1.696-8.914 2.618-4.546 1.623-8.241 4.456-11.97 7.105-2.294 1.764-4.43 3.68-6.194 5.838-2.698 3.334-5.266 6.839-6.624 10.739-1.368 4.156-2.108 8.508-1.657 12.824.272 2.561.733 5.186 2.125 7.502 1.018 1.481 2.18 3.027 2.157 4.8.33 1.567 1.637 3.16 3.649 3.317 1.106.072 2.77-.05 3.097 1.111.37 1.312-1.197 2.55-.456 3.865.737 1.706 2.93 2.693 5.028 2.62 1.175-.036 2.747.045 3.135 1.183.49 1.195.374 2.79 1.875 3.473 3.047 1.804 6.429 3.182 9.844 4.415 4.081 1.407 8.4 2.3 12.788 2.672 3.341.245 6.698.364 10.042.592 4.286.399 8.828-.048 12.604-1.887 1.033-1.13 2.914-1.746 4.513-1.133 1.937.455 4.01-.008 5.647-.934 4.736-1.994 9.317-4.304 13.331-7.233a41.103 41.103 0 007.849-7.473c1.639-2.152 3.263-4.322 4.372-6.714a29.165 29.165 0 003.038-11.499c.014-1.231-.28-2.439-.432-3.65-.04-1.496.21-3.013-.376-4.456-.716-3.15-2.423-6.05-4.176-8.868-.566-1.313-1.529-2.695-3.239-3.06-1.196-.58-1.676-1.813-1.513-2.916-.489-2.052-2.731-3.26-4.358-4.669-4.498-3.552-9.632-6.573-15.304-8.64-3.978-1.491-8.282-2.402-12.647-2.45-2.415-.112-4.684-.88-6.984-1.416-1.382-.153-2.784-.108-4.174-.06z" fill="#d30000"/><path d="M-365.02 504.83a35.221 20.279 0 11-70.442 0 35.221 20.279 0 1170.442 0z" transform="matrix(.27355 -.21103 .25046 .23049 258.786 -118.565)" fill="url(#prefix__g)"/><path style="block-progression:tb;text-indent:0;text-transform:none" d="M411.59 376.97c1.345.132 2.337 1.448 1.916 2.543-10.344 28.586-24.667 41.845-41.434 45.654s-35.052-1.77-53.45-9.091c-1.124-.41-1.69-1.671-1.174-2.614.517-.944 2.016-1.387 3.109-.919 18.134 7.217 31.812 2.86 46.664-.514s31.802-5.705 41.916-33.658c.294-.875 1.389-1.5 2.453-1.401z" color="#000" fill="url(#prefix__h)" transform="matrix(.64729 0 0 .6413 78.011 -145.08)"/><path d="M436.562 82.093c-5.524.573-11.51 5.743-17.217 7.974-6.916 2.97-12.692.902-18.643.184-3.737-.455-7.999-.531-12.35 3.238-4.925 4.204-9.324 10.26-13.11 16.577-2.285 3.937-4.153 8.905-3.459 12.575.77 5.68 3.545 9.35 5.158 14.187.84 1.483 2.082 2.909 1.435 5.638-.41 1.866-.565 3.823.308 4.769.691.858 1.34 1.96.95 3.764-.256 2.27-.418 4.793.781 5.841 3.273 5.131 8.994 6.098 14.471 6.704 3.621.269 7.256.68 11.202-.268 3.492-1.145 7.106-2.925 10.424-3.062 2.714-.437 5.581-2.437 8.366-4.322 5.553-3.56 11.482-7.828 16.062-14.845 3.22-5.478 3.865-11.655 3.998-16.922.466-5.81 3.051-11.983 5.547-17.787.946-2.82.58-5.272.084-7.345-.114-2.649.276-5.966-1.252-7.315-3.13-4.548-6.548-9.33-12.002-9.585-.244-.024-.502 0-.753 0z" fill="#308acf"/><path d="M-406.12 484.94c-11.216.91-23.911 5.408-28.781 16.438-2.131 9.889 6.978 18.357 15.933 20.401 15.724 5.794 33.434 3.624 48.598-2.839 4.679-5.419.49-13.018-3.533-17.49-7.683-9.672-19.403-17.474-32.217-16.51z" transform="matrix(.28181 -.23521 .12001 .2569 448.37 -120.212)" fill="url(#prefix__i)"/><path style="block-progression:tb;text-indent:0;text-transform:none" d="M891.38 441.59c-6.823 5.683-3.662 15.322-4.835 22.947.347 15.097-4.98 32.277-19.122 39.782-23.024 11.597-49.185 13.344-73.896 19.328-24.377 4.333-50.146 3.59-73.446-5.28-4.095-.498-4.777 6.041-.885 6.93 26.429 11.044 54.454 19.606 83.268 20.805 26.907 1.382 55.072-5.983 75.46-24.184 8.882-8.137 17.08-18.3 18.344-30.715 1.982-14.786-.807-29.672-.187-44.504-.12-2.592-1.563-5.747-4.7-5.108z" color="#000" fill="url(#prefix__j)" transform="matrix(.2331 0 -.10448 .35753 277.571 -40.34)"/><g><path d="M456.856 167.258c-8.447.155-16.69 2.357-24.628 5.076-6.193 2.095-11.77 5.72-16.619 10.028-4.027 3.54-7.55 7.709-9.937 12.51-3.136 6.218-4.336 13.504-2.767 20.32.597 2.805 2.042 5.307 3.312 7.85.546 1.128.924 2.326 1.346 3.497.913 1.672 2.893 2.499 4.755 2.417 1.122.075 2.244 1.188 1.77 2.338-.228 1.165-.776 2.593.164 3.59 1.252 1.85 3.735 2.176 5.813 2.035 1.567-.043 3.212.628 4.017 2.01.993 1.098 2.588 1.275 3.982 1.07 3.83-.066 7.904-.005 11.321 1.926 3.366 1.981 5.479 5.659 9.225 7.067 3.427 1.108 7.08.867 10.623 1.215 3.325.184 6.915.176 9.82-1.664 2.462-1.42 4.204-3.7 6.16-5.685 1.383-1.029 3.198-.686 4.75-.319 3.07.474 6.165-.084 9.243-.131 3.166-.333 6.135-1.718 8.633-3.633 6.363-4.414 11.653-10.456 14.731-17.55 1.259-2.95 2.365-6.136 2.063-9.382-.58-3.444-3.066-6.132-5.45-8.538-2.272-2.386-4.616-5.09-4.994-8.478-.348-2.003-.783-4.017-1.6-5.885-.134-1.685.994-3.502-.011-5.082-1.675-2.64-4.477-4.232-6.956-6.034-3.14-2.065-6.459-4.299-10.333-4.577-4.007-.21-7.896 1.322-11.913.992-2.749-.128-5.336-1.326-7.45-3.03-2.166-1.612-4.337-3.588-7.155-3.878a8.617 8.617 0 00-1.916-.075z" fill="#00c300"/><path d="M-365.02 504.83a35.221 20.279 0 11-70.442 0 35.221 20.279 0 1170.442 0z" transform="matrix(.30747 -.22724 .2815 .2482 408.096 -26.907)" fill="url(#prefix__k)"/><path style="block-progression:tb;text-indent:0;text-transform:none" d="M914.26 418.42c-3.717 1.658-2.932 6.048-3.971 9.13-4.255 14.528-14.552 26.836-26.244 37.005-7.886 6.495-18.618 9.475-29.077 9.226-11.852.21-23.963 1.387-34.817 6.09-9.842 4.204-18.856 10.157-29.273 13.151-8.773 2.24-18.16 2.504-27.103.99-11.446-2.056-21.34-8.018-31.938-12.157-3.661-1.31-8.022-3.361-11.841-1.46-2.201 2.445.405 6.423 3.645 6.326 10.311 3.813 18.66 10.765 27.992 16.124 9.427 5.233 19.94 8.792 30.853 10.127 9.124 1.796 18.937.342 26.894-4.192 10.792-5.032 20.951-12.182 33.274-13.54 10.727-1.203 22.068.978 32.333-2.973 8.028-3.6 13.917-10.076 19.07-16.645 7.068-8.47 12.965-17.75 18.157-27.298 3.043-6.058 6.361-12.12 7.972-18.666.767-3.459 1.042-7.965-2.208-10.426-1.106-.644-2.405-1.072-3.718-.812z" color="#000" fill="url(#prefix__l)" transform="matrix(.32268 0 0 .34541 207.731 63.58)"/></g><g><path d="M413.742 262.808c-6.514-.049-12.896 2.02-19.04 4.577-4.164 1.655-8.015 4.429-11.371 7.932-3.884 3.948-7.354 8.713-9.546 14.41-2.283 6.015-3.091 13.013-1.84 19.535.393 2.134 1.235 4.058 2.017 5.993.562 1.408.955 2.91 1.394 4.377.665 1.733 2.259 2.504 3.711 2.484.77.088 1.484.957 1.3 1.98-.109 1.088-.697 2.258-.155 3.306.69 1.695 2.303 2.34 3.727 2.325 1.03.059 2.327.302 2.762 1.672.426 1.255.725 2.857 1.849 3.399 2.313 1.65 4.733 3.108 7.279 4.085 2.505.823 5.174.567 7.623-.435 2.428-.756 5.121-1.2 7.462.19 2.732 1.302 5.274 3.555 8.274 3.716 2.67.108 5.07-1.589 7.434-2.919 1.81-.66 3.796.715 5.534-.463 3.386-1.846 6.773-3.846 9.694-6.725 2.158-2.077 4.042-4.64 5.325-7.673 1.965-4.318 2.655-9.294 3.38-14.123.693-4.823 1.1-9.703 1.515-14.574.205-3.65-.405-7.393-1.811-10.6-.347-.901-1.042-1.392-1.625-2.008a3.315 3.315 0 01-.652-2.326c-.104-1.935-1.321-3.334-2.476-4.416-1.892-2.098-4.08-4.084-6.655-4.454-3.003-.476-5.882 1.513-8.887.949-2.36-.443-4.1-2.707-5.708-4.738-1.384-1.705-2.92-3.28-4.745-4.164a10.917 10.917 0 00-5.77-1.312z" fill="#e3d300"/><path d="M-365.02 504.83a35.221 20.279 0 11-70.442 0 35.221 20.279 0 1170.442 0z" transform="matrix(.22217 -.21807 .2034 .23819 378.994 79.072)" fill="url(#prefix__m)"/><path style="block-progression:tb;text-indent:0;text-transform:none" d="M947.26 439.19c-4.863 1.557-5.83 6.795-7.74 10.612-6.18 13-11.16 26.89-21.258 37.87-9.01 9.492-21.696 15.365-34.778 18.492-10.386 2.655-20.928 4.768-31.396 7.123-8.967 1.743-18.532 2.597-27.327-.346-11.845-3.43-23.685-8.665-36.4-7.699-8.709.38-17.582.491-26.037 2.61-2.211 1.26-3.716 4.97-.946 6.372 5.39 2.213 11.217-.354 16.825.125 12.102-.276 24.543 2.65 34.168 9.642 10.01 6.512 20.759 13.309 33.319 14.256 18.567 1.558 37.729-1.674 54.19-9.849a69.49 69.49 0 0022.946-19.69c7.255-9.97 11.164-21.55 15.604-32.734a1006.853 1006.853 0 0112.749-33.41c.082-1.873-1.851-3.702-3.92-3.374z" color="#000" fill="url(#prefix__n)" transform="matrix(.24304 0 0 .33148 214.371 155.68)"/></g><g><path d="M295.22 304.448c-8.021-.076-16.389 1.616-24.634 3.82-5.703 1.443-11.444 3.537-16.752 6.717-7.737 4.282-15.173 9.943-20.23 17.099-3.464 4.918-5.807 10.67-5.136 15.77.23 2.505 1.811 4.343 3.208 6.171.722 1.262.592 3.192 2.163 3.811 1.62.836 3.794.475 5.742.464.95.11 1.445 1.243.573 2.084-.755.893-1.224 2.133-.551 2.879 1.017 1.36 3.087 1.554 4.942 1.592 1.11.036 2.408-.15 3.267.408 1.012 1.061-.127 3.13 1.037 4.112 1.154 1.186 2.775 1.884 4.037 2.962 5.002 3.556 10.886 6.279 17.669 7.05 3.674.395 7.38.762 11.215.646 3.428-.126 7.047-.846 10.43-2.553 1.616-.689 3.302-.757 4.74-.385 1.826.234 3.847-.16 5.745-1.008 8.572-2.97 17.264-6.773 24.66-12.7 5.287-4.162 10.2-9.257 12.693-15.095 1.304-3.147 1.381-6.312 1.108-9.28-.131-3.094-1.215-5.86-2.667-8.339-.994-1.872-1.855-3.888-3.389-5.368-1.069-.588-2.462-1.316-2.098-2.841.163-2.255-1.49-3.68-2.835-5.056-4.322-4.65-9.666-8.63-16.454-10.275-3.254-.84-6.77-1.092-10.231-1.43-2.72-.489-5.292-1.39-8.253-1.255z" fill="#e36100"/><path d="M-402.06 484.59c-10.412.428-21.642 2.932-29.021 10.828-5.384 5.421-3.5 14.933 2.082 19.487 7.08 6.68 16.861 9.549 26.401 10.041 12.128.725 25.25-2.323 34.038-11.168 4.03-4.591 4.887-12.166.629-16.909-5.512-7.267-14.792-10.128-23.412-11.639a62.765 62.765 0 00-10.716-.639z" transform="matrix(.35145 -.20667 .21306 .22574 294.466 130.328)" stroke="url(#prefix__o)" stroke-width="3.128" fill="url(#prefix__p)"/><path style="block-progression:tb;text-indent:0;text-transform:none" d="M1021.9 469.66c-4.24 1.336-4.409 6.465-5.443 10.053-8.639 26.91-32.76 47.56-60.133 53.678-20.261 5.329-40.847 9.437-61.551 12.591-17.416 1.74-35.393-2.164-50.296-11.41-2.342-1.3-5.894-3.059-8.103-.71-1.554 3.239 1.543 6.356 4.437 7.326 15.23 9.213 30.506 19.151 48.036 23.351 27.617 7.052 58.233 3.791 82.863-10.943 13.05-7.688 24.237-18.303 33.077-30.568 11.071-14.49 19.522-31.216 23.208-49.149-.279-2.87-3.446-4.534-6.094-4.219z" color="#000" fill="url(#prefix__q)" transform="matrix(.32524 0 -.0823 .31415 36.981 193.72)"/></g><g><path d="M955 368.41c-19.475 1.269-34.574 16.694-43.196 33.105-9.172 16.424-18.712 34.956-36.804 42.989-20.685 8.386-42.989-1.989-64.156 2.75-13.104 3.412-23.231 15.163-24.957 28.551-4.467 20.752 3.636 41.603 13.714 59.431 2.903 6.302 8.86 12.058 16.244 11.518 4.713 1.106 6.294 6.477 4.75 10.59-.389 5.225 4.041 10.741 9.617 9.552 8.673.11 18.407-2.814 26.042 2.751 15.249 5.28 31.27-.912 46.883.633 26.318.312 49.346 14.584 71.761 26.714 12.133 7.881 27.465 6.373 40.66 2.414 13.094-.987 26.9-1.908 38.228-9.272 27.149-12.99 53.587-30.797 68.799-57.51 11.868-19.9 16.224-45.78 5.667-67.17-5.743-12.343-16.388-21.728-28.424-27.726-9.759-6.083-15.964-16.295-25.827-22.197-12.626-8.61-25.117-17.448-37.813-25.935-17.853-10.752-38.231-16.504-58.782-19.157-7.395-1.292-14.886-2.21-22.406-2.03z" stroke="#e3e3e3" stroke-width="3.443" fill="#fff" transform="matrix(.2444 0 -.0545 .34506 117.341 16.94)"/><path style="block-progression:tb;text-indent:0;text-transform:none" d="M1099.1 486.12c-8.847 3.844-7.445 15.328-13.02 21.912-14.291 25.496-42.01 40.802-70.114 45.934-24.935 8.071-52.026 6.08-76.852-1.344-11.251-2.873-22.558-6.27-34.265-6.408-1.458 3.72 4.19 4.004 6.637 4.044 29.158 4.586 53.046 23.884 81.185 31.515 25.352 4.116 50.507-7.65 69.518-23.677 20.082-17.891 34.835-41.855 41.847-67.79.551-2.959-2.3-4.641-4.937-4.187z" color="#000" fill="url(#prefix__r)" transform="matrix(.2444 0 -.0545 .34506 117.341 16.94)"/></g><g><g transform="matrix(.375 0 0 .375 164.311 -13.52)"><path d="M146.68 577.57h-335.61c-38.041.395-76.535-1.495-114.07 3.761-39.234 4.741-79.15 5.742-118.76 8.291-26.376.631-52.823-1.199-79.133.768-15.727.542-33.672.722-45.579 8.715-8.095 5.312-13.781 13.32-11.671 20.952-2.095 7.625 3.583 15.618 11.671 20.926 11.907 7.992 29.852 8.173 45.579 8.714 26.31 1.967 52.757.138 79.133.769 39.609 2.549 79.524 3.576 118.76 8.317 37.531 5.256 76.026 3.34 114.07 3.735h335.61v-42.474z" transform="rotate(-90 -201.85 693.56)" filter="url(#prefix__s)" fill="#a84600"/><path d="M-103.43 167.42v335.61c.395 38.041-1.495 76.535 3.761 114.07 4.741 39.234 5.742 79.15 8.291 118.76.631 26.376-1.199 52.823.768 79.133.542 15.727.722 33.672 8.715 45.579 5.312 8.094 13.32 13.781 20.952 11.671 7.625 2.095 15.618-3.583 20.926-11.671 7.992-11.907 8.173-29.852 8.714-45.579 1.967-26.31.138-52.757.769-79.133 2.549-39.609 3.576-79.524 8.317-118.76 5.256-37.531 3.34-76.026 3.735-114.07V167.42h-42.474z" opacity=".5" fill="url(#prefix__t)" transform="translate(-214.41 177.61)"/><a transform="matrix(.72929 0 0 .83666 -366.83 -293.77)" filter="url(#prefix__u)"><path d="M79.32 534.13s14.847-.527 22.047 1c8.06 1.709 14.832 8.44 23.047 9 9.93.677 19.289-5.016 29.047-7 5.977-1.215 18.047-3 18.047-3-1.177-3.466-2.334-6.927-3.563-10.375-1.3-3.46-3.106-7.942-4.093-10.312-.988-2.37-.694-2.322-1.72-3.969-1.025-1.646-2.38-3.112-4.718-5.594-2.337-2.48-6.38-5.992-9.531-9.03-2.27-2.153-4.567-4.297-6.625-6.657-.7-.822-1.384-1.644-2-2.531-1.414-1.883-2.864-3.753-3.906-5.875-.568-1.04-1.09-2.126-1.47-3.25a27.182 27.182 0 01-1.718-5.469 70.054 70.054 0 01-.75-3.813c-.16-2.11-.253-4.227-.312-6.343-.004-1.104.099-2.182.187-3.281a72.81 72.81 0 01.656-4.938c.7-4.69 1.772-9.31 2.47-14 .339-3.174.735-6.41.28-9.594-.254-2.411-1.095-4.71-1.843-7-.932-2.58-2.138-5.053-2.813-7.719-.474-1.974-.662-4.022-1.125-6-.28-1.406-.61-2.821-1.219-4.125-.628-1.148-1.52-2.128-2.187-3.25-.55-.951-.665-2.135-.344-3.187.284-.978.706-1.928.875-2.938.279-.27-.135-.955-.437-.53-.896.643-1.701 1.398-2.47 2.187-1.15 1.616-1.89 3.516-2.343 5.437-.504 2.238-1.034 4.48-1.375 6.75-.218 1.65-.448 3.28-.594 4.938-.112 1.136-.054 2.27.031 3.406.091 2.162.265 4.325.563 6.469.251 2.01.206 4.048.031 6.062-.064 1.11-.404 2.182-.687 3.25-.297.977-.578 1.97-1.063 2.875-.563 1.069-1.063 2.148-1.781 3.125-.86 1.366-1.919 2.614-2.75 4-.72 1.134-1.398 2.283-1.969 3.5-.392.95-.826 1.905-1.094 2.906-.959 3.104-1.895 6.195-3 9.25-1.783 5.327-3.723 10.625-5.718 15.875-2.743 7.272-5.456 14.548-8.22 21.812a3385.11 3385.11 0 00-11.468 30.72c-.839 2.39-1.585 4.811-2.375 7.218zm1.336-7.464c-1.097 3.414-2.224 6.82-3.273 10.25-1.095 3.692-2.168 7.382-3.089 11.125-1.51 6.099-2.743 12.269-3.945 18.438a94.559 94.559 0 00-.856 5.5 377.46 377.46 0 00-1.438 11.438c-.273 3.88-.527 7.769-.703 11.656-.086 3.053-.198 6.102-.214 9.156.259 4.991.412 9.992.887 14.969.266 2.298.537 4.61 1.009 6.875.633 3.397 1.338 6.783 2.324 10.094 1.072 3.746 2.582 7.337 4.312 10.812 1.125 2.093 2.414 4.1 3.946 5.906.89 1.095 1.851 2.127 2.813 3.156.99.95 2.007 1.872 3.059 2.75 1.56 1.242 3.138 2.454 4.832 3.5 1.189.796 2.419 1.56 3.67 2.25 2.468 1.403 4.96 2.728 7.523 3.938 2.872 1.28 5.808 2.453 8.747 3.562 1.73.63 3.51 1.019 5.29 1.469 1.463.291 2.917.677 4.404.813 1.971.254 3.978.338 5.964.343 3.006-.052 5.983-.554 8.93-1.125 1.567-.414 3.134-.753 4.68-1.25 2.617-.812 5.224-1.688 7.768-2.719 2.644-1.175 5.206-2.523 7.768-3.875 2.043-1.058 3.986-2.333 5.933-3.562 1.449-.974 2.91-1.935 4.25-3.063 1.193-.912 2.317-1.923 3.426-2.937.742-.704 1.432-1.45 2.141-2.188 2.158-2.583 4.203-5.279 5.78-8.28a36.476 36.476 0 001.866-3.75c1.18-2.718 1.848-5.64 2.6-8.5.51-2.456 1.027-4.911 1.314-7.407.315-2.324.604-4.634.826-6.969.194-2.694.353-5.391.398-8.094.08-2.428.04-4.883.092-7.312-.08-3.173-.12-6.327-.215-9.5-.09-3.435-.295-6.88-.428-10.312a517.15 517.15 0 00-1.192-11.469c-.41-3.676-.94-7.356-1.56-11-.513-3.347-1.302-6.647-2.08-9.938-.781-3.213-1.59-6.395-2.538-9.562-1.056-3.58-2.179-7.16-3.303-10.719-.483-1.497-1.003-2.976-1.499-4.469h-90.22zm0 0c-1.097 3.414-2.224 6.82-3.273 10.25-1.095 3.692-2.168 7.382-3.089 11.125-1.51 6.099-2.743 12.269-3.945 18.438a94.559 94.559 0 00-.856 5.5 377.493 377.493 0 00-1.438 11.438c-.273 3.88-.527 7.769-.703 11.656-.086 3.053-.198 6.102-.214 9.156.259 4.991.412 9.992.887 14.969.266 2.297.537 4.61 1.009 6.875.633 3.396 1.338 6.783 2.324 10.094 1.072 3.746 2.582 7.337 4.312 10.812 1.125 2.093 2.414 4.1 3.946 5.906.89 1.095 1.851 2.127 2.813 3.156.99.95 2.007 1.872 3.059 2.75 1.56 1.241 3.138 2.454 4.832 3.5a50.64 50.64 0 003.67 2.25c2.468 1.403 4.96 2.727 7.523 3.938 2.872 1.28 5.808 2.453 8.747 3.562 1.73.63 3.51 1.018 5.29 1.469 1.463.291 2.917.677 4.404.812 1.971.255 3.978.34 5.964.344 3.006-.052 5.983-.554 8.93-1.125 1.567-.414 3.134-.753 4.68-1.25 2.617-.812 5.224-1.688 7.768-2.719 2.644-1.175 5.206-2.523 7.768-3.875 2.043-1.058 3.986-2.333 5.933-3.562 1.449-.974 2.91-1.935 4.25-3.063 1.193-.912 2.317-1.923 3.426-2.937.742-.704 1.432-1.45 2.141-2.188 2.158-2.583 4.203-5.28 5.78-8.28a36.474 36.474 0 001.866-3.75c1.18-2.718 1.848-5.64 2.6-8.5.51-2.456 1.027-4.911 1.314-7.407.315-2.324.604-4.634.826-6.969.194-2.694.353-5.391.398-8.094.08-2.428.04-4.883.091-7.312-.079-3.173-.118-6.327-.214-9.5-.09-3.435-.295-6.88-.428-10.312a517.15 517.15 0 00-1.193-11.47c-.408-3.675-.94-7.355-1.56-11-.512-3.346-1.301-6.646-2.079-9.937-.781-3.213-1.59-6.395-2.538-9.562-1.056-3.58-2.18-7.16-3.303-10.72-.483-1.496-1.003-2.975-1.499-4.468h-90.22z" fill="url(#prefix__v)"/></a><g><path d="M132.39 330.26c42.278 15.845 80.292 14.561 115 0v132.6c-33.826 12.447-66.512 28.043-115 0z" filter="url(#prefix__w)" fill="#ececec" transform="matrix(.72034 0 0 .83666 -411.79 -39.123)"/><g opacity=".7" stroke="#646464" stroke-width="2.576"><path d="M105.77 408.13c55.889 16.217 85.097 5.564 114 0v15.045c-30.563 7.967-60.097 17.288-114 0z" fill="url(#prefix__x)" transform="matrix(.72034 0 0 .83666 -392.255 -74.263)"/><path d="M105.77 439.63c55.889 16.217 85.097 5.564 114 0v15.045c-30.563 7.967-60.097 17.288-114 0z" fill="url(#prefix__y)" transform="matrix(.72034 0 0 .83666 -392.255 -74.263)"/><path d="M105.77 471.13c55.889 16.217 85.097 5.564 114 0v15.045c-30.563 7.967-60.097 17.288-114 0z" fill="url(#prefix__z)" transform="matrix(.72034 0 0 .83666 -392.255 -74.263)"/></g><path d="M131.89 329.76c42.278 15.845 80.292 14.561 115 0v132.6c-33.826 12.447-66.512 28.043-115 0z" opacity=".5" fill="url(#prefix__A)" transform="matrix(.72034 0 0 .83666 -411.43 -38.705)"/></g></g><g transform="translate(-136.784 -518.093)"><g fill="#a26151"><path d="M146.68 577.57h-335.61c-38.041.395-76.535-1.495-114.07 3.761-39.234 4.741-79.15 5.742-118.76 8.291-26.376.631-52.823-1.199-79.133.768-15.727.542-33.672.722-45.579 8.715-8.095 5.312-13.781 13.32-11.671 20.952-2.095 7.625 3.583 15.618 11.671 20.926 11.907 7.992 29.852 8.173 45.579 8.714 26.31 1.967 52.757.138 79.133.769 39.609 2.549 79.524 3.576 118.76 8.317 37.531 5.256 76.026 3.34 114.07 3.735h335.61v-42.474z" transform="matrix(0 -.28125 .28125 0 -25.247 747.5)" filter="url(#prefix__s)"/><path d="M-104.86 170.28v335.61c.395 38.041-1.495 76.535 3.761 114.07 4.741 39.234 5.742 79.15 8.291 118.76.631 26.376-1.199 52.823.768 79.133.541 15.727.722 33.672 8.715 45.579 5.312 8.095 13.32 13.781 20.952 11.671 7.625 2.096 15.618-3.583 20.926-11.671 7.992-11.907 8.173-29.852 8.714-45.579 1.967-26.31.137-52.757.769-79.133 2.549-39.609 3.576-79.524 8.317-118.76 5.256-37.531 3.34-76.026 3.735-114.07V170.28h-42.474z" opacity=".5" fill="url(#prefix__B)" transform="translate(166.285 659.16) scale(.28125)"/></g><a transform="matrix(.20511 0 0 .23531 123.05 526.58)" filter="url(#prefix__u)"><path d="M122.88 402.75c-3.17 11.481-6.534 23.287-14.5 32.5-7.25 8.525-3.842 20.3.278 29.395 3.628 6.396 1.372 13.654-1.852 19.635-5.872 16.896-.128 35.209-4.984 52.333-4.974 24.971-21.543 45.312-30.269 68.813-6.871 19.761 1.329 42.333 17.13 55.344 21.147 18.606 55.931 17.302 76.065-2.193 16.211-14.909 19.337-38.512 18.477-59.428-.84-21.694-3.203-43.622-11.3-63.949-6.558-17.782-16.759-34.054-28.581-48.719-4.396-11.657-8.911-23.306-12.722-35.165-4.454-12.516 4.557-25.588-.718-38.022-1.376-5.205-2.583-10.574-5.398-15.232l-1.625 4.688z" fill="url(#prefix__v)"/></a><path d="M132.39 330.26c42.278 15.845 80.292 14.561 115 0v132.6c-33.826 12.447-66.512 28.043-115 0z" filter="url(#prefix__w)" fill="#ececec" transform="matrix(.2026 0 0 .23531 110.469 598.202)"/><g opacity=".7" stroke="#646464" stroke-width="3.435"><path d="M105.77 408.13c55.889 16.217 85.097 5.564 114 0v15.045c-30.563 7.967-60.097 17.288-114 0z" fill="url(#prefix__x)" transform="matrix(.2026 0 0 .23531 115.963 588.32)"/><path d="M105.77 439.63c55.889 16.217 85.097 5.564 114 0v15.045c-30.563 7.967-60.097 17.288-114 0z" fill="url(#prefix__y)" transform="matrix(.2026 0 0 .23531 115.963 588.32)"/><path d="M105.77 471.13c55.889 16.217 85.097 5.564 114 0v15.045c-30.563 7.967-60.097 17.288-114 0z" fill="url(#prefix__z)" transform="matrix(.2026 0 0 .23531 115.963 588.32)"/></g><path d="M131.89 329.76c42.278 15.845 80.292 14.561 115 0v132.6c-33.826 12.447-66.512 28.043-115 0z" opacity=".5" fill="url(#prefix__A)" transform="matrix(.2026 0 0 .23531 110.57 598.32)"/></g></g></svg>